<?xml version="1.0" encoding="utf-8"?>
<!-- Generator: Adobe Illustrator 24.0.0, SVG Export Plug-In . SVG Version: 6.00 Build 0)  -->
<svg version="1.1" id="Layer_1" xmlns="http://www.w3.org/2000/svg" xmlns:xlink="http://www.w3.org/1999/xlink" x="0px" y="0px"
	 viewBox="0 0 450 401" style="enable-background:new 0 0 450 401;" xml:space="preserve">
<style type="text/css">
	.st0{fill:none;stroke:#236D9B;stroke-linecap:round;stroke-miterlimit:10;}
	.st1{fill:#FFFFFF;}
	.st2{fill:#C6EDF7;}
	.st3{opacity:0.79;fill:#FFFFFF;enable-background:new    ;}
	.st4{fill:#72C5E3;}
	.st5{opacity:5.000000e-02;enable-background:new    ;}
	.st6{fill:#C3C9CE;}
	.st7{opacity:0.82;fill:#213949;enable-background:new    ;}
	.st8{fill:#213949;}
	.st9{fill:#54667F;}
	.st10{opacity:0.47;fill:url(#SVGID_1_);enable-background:new    ;}
	.st11{fill:#55D3B9;}
	.st12{fill:#ECEDF2;}
	.st13{fill:#3A9CD6;}
	.st14{fill:#3DA3E3;}
	.st15{fill:#2EC4A9;}
	.st16{opacity:0.14;fill:#213949;enable-background:new    ;}
	.st17{fill:#65EACA;}
	.st18{fill:#FF3A56;}
	.st19{opacity:0.35;}
	.st20{fill:#F9F9E8;}
	.st21{opacity:0.32;fill:#4F190B;enable-background:new    ;}
	.st22{fill:#F7FFF3;}
	.st23{opacity:0.49;}
	.st24{opacity:0.32;fill:#FFFFFF;enable-background:new    ;}
	.st25{fill:#E4E7E9;}
	.st26{fill:#FFBD9A;}
	.st27{fill:#FFAB8B;}
	.st28{fill:none;}
	.st29{fill-rule:evenodd;clip-rule:evenodd;fill:#4F6A92;}
	.st30{fill:#60B1D5;}
	.st31{fill:#C5C6C6;}
	.st32{fill-rule:evenodd;clip-rule:evenodd;fill:#C9F1FF;}
	.st33{fill-rule:evenodd;clip-rule:evenodd;fill:#60B1D5;}
</style>
<title>remedo-for-gynecologist</title>
<g>
	<g id="Calque_1">
		<line class="st0" x1="15" y1="348.4" x2="435" y2="348.4"/>
		<rect x="63.4" y="82.5" class="st1" width="78.4" height="90.6"/>
		<rect x="66.4" y="86" class="st2" width="72.4" height="83.7"/>
		<path class="st3" d="M92.8,132.8v-0.1c0-0.1-0.2-7.7-0.5-10.3c-0.3-3-1.9-12-1.9-12c-0.1-0.5-0.4-0.9-0.7-1.2l-0.5-0.4l0,0
			c-0.5-0.4-4-1.4-5.1-1.9l0,0H84l0,0l0,0v-1.6l0.1-0.1c0.5-0.7,0.9-1.6,1.2-2.4l0,0c0.3,0.1,0.6-0.3,0.8-0.8s0-1-0.3-1.1
			c-0.1,0-0.1,0-0.2,0c0.1-0.3,0.1-0.6,0.1-0.8l0,0c0.1-0.4,0.1-0.8,0.1-1.2c0-0.4,0-0.8-0.1-1.3c-0.1-0.2-0.2-0.4-0.3-0.6
			c0,0,0,0,0-0.1c-1.3-1.6-3.3-2.2-5.3-1.7c-0.7,0.1-1.4,0.6-1.7,1.3c-0.4,0.2-0.6,0.6-0.6,1l0,0c-0.1,1.1-0.1,2.2,0.1,3.3h-0.1
			c-0.3,0.1-0.4,0.6-0.3,1.1s0.4,0.9,0.7,0.8c0.2,0.8,0.5,1.5,0.9,2.2l0.4,0.4v1.5c-1.2,0.5-2.4,1-3.6,1.4c-0.4,0.1-0.8,0.3-1.2,0.5
			c-0.1,0-0.2,0.1-0.3,0.2l0,0l-0.6,0.5c-0.4,0.3-0.6,0.7-0.7,1.2c0,0-1.6,9-1.9,12c-0.3,2.6-0.5,10.2-0.5,10.3v0.1l-0.4,2l0.4,2.3
			l0.9,1.1c0.3,0.3,0.7,0.3,1,0l0,0l-0.3-0.5l0.3-0.7l-0.6-0.9l-0.1-1.5l0.7,0.5l-0.1,1.4l0.2,0.1c0.2,0.1,0.5,0.1,0.6-0.2
			c0,0,0-0.1,0.1-0.1l0.3-1.6l-0.4-1.7l-0.5-1.7c0.9-2.5,1.5-5.2,1.8-7.9c0.1-0.8,0.9-5.7,1.4-8.3v2.1c0,0.3,0,0.7,0,1
			c0,2,0,4.3-0.1,5.6c-0.1,2-0.3,4.1-0.4,5.7c0,0.1,0,0.1,0,0.2l0,0c-0.1,1.3-0.2,2.2-0.2,2.2l0,0c-0.1,0.6-0.1,1-0.1,1
			c0,0.3,0,0.6,0.1,0.9c0.1,1.4,0.1,2.9,0.2,4.4s0.2,3.6,0.3,5l0.1,0.6l0.1,2v0.9l-0.1,0.3c-0.2,0.8-0.2,1.6-0.3,2.5
			c-0.1,2,0,7.7,0.1,9.7c0,0.5,0.1,1,0.1,1.6c0,0.3,0.2,1.5,0.2,1.5l1,0.1c-0.8,0.3-3.7,1.6-4,1.5s-0.4,0.6,0,0.6
			c1.5,0.1,3,0,4.5-0.3c0.6-0.2,2,0.4,2.6-0.2c0.3-0.5,0.4-1,0.4-1.6c0.1,0,0.2,0,0.2,0c0.2-0.4,0.2-0.8,0.2-1.3s0.1-1.1,0.1-1.6
			c0-1.1,0.1-5.9,0.1-7s0-2.2,0-3.3c0-0.5-0.1-1.1-0.1-1.6c0-0.3,0-0.6,0-0.9v-0.7l0.2-3.7c0.2-0.9,0.3-4.9,0.4-6.9h0.7
			c0.2,1.9,0.3,6,0.4,6.9l0.2,3.7v0.7c0,0.3,0,0.6,0,0.9c0,0.5-0.1,1.1-0.1,1.6c0,1.1-0.1,2.2,0,3.3s0.1,5.9,0.1,7
			c0,0.5,0,1.1,0.1,1.6c0,0.4,0.1,0.9,0.2,1.3c0.2,0.1,0.5,0.1,0.7,0.1l0.1,0.7c0,0,1.2,2.7,1.9,2.4s2.4-0.6,2.3-1
			c-0.4-0.8-0.8-1.5-1.3-2.2v-0.2h0.7c0,0,0.2-1.2,0.2-1.5c0.1-0.5,0.1-1,0.1-1.6c0.1-2,0.2-7.7,0.1-9.7c0-0.8-0.1-1.7-0.3-2.5
			c0-0.1,0-0.2-0.1-0.3V146l0.1-2c0-0.2,0.1-0.4,0.1-0.6c0.2-1.4,0.3-3.6,0.3-5s0.1-2.9,0.2-4.4c0-0.3,0.1-0.6,0.1-0.9
			c0,0-0.2-1.4-0.5-3.2l0,0l0,0c0,0,0-0.1,0-0.2c-0.2-1.6-0.3-3.7-0.5-5.7c-0.1-1.3-0.1-3.6-0.1-5.6c0-0.5,0-0.9,0-1.3v-1.6
			c0.5,2.6,1.3,7.3,1.3,8.1c0.3,2.7,0.9,5.3,1.8,7.9l-0.5,1.7l-0.4,1.7l0.3,1.6c0.1,0.2,0.3,0.4,0.6,0.3c0,0,0.1,0,0.1-0.1l0.2-0.1
			l-0.1-1.4l0.7-0.5l-0.1,1.5l-0.6,0.9l0.3,0.7l-0.3,0.4c0.3,0.3,0.7,0.3,1,0l0,0l0.9-1.1l0.4-2.3L92.8,132.8z"/>
		<rect x="99.3" y="97.5" class="st4" width="37.4" height="6.7"/>
		<rect x="99.3" y="109" class="st3" width="37.4" height="6.7"/>
		<rect x="99.3" y="121.7" class="st4" width="37.4" height="6.7"/>
		<rect x="99.3" y="133.3" class="st3" width="23.8" height="6.7"/>
		<polygon class="st1" points="136,164.5 99.4,164.5 99.4,159.4 136,159.4 136,159.3 99.4,159.3 99.4,154.6 136,154.6 136,154.5 
			99.4,154.5 99.4,149.7 136,149.7 136,149.6 99.4,149.6 99.4,145.5 136,145.5 136,145.4 99.4,145.4 99.4,144.6 99.3,144.6 
			99.3,164.6 136,164.6 		"/>
		<rect x="106.5" y="144.7" class="st1" width="0.1" height="19.8"/>
		<rect x="113.7" y="144.7" class="st1" width="0.1" height="19.8"/>
		<rect x="127.4" y="144.7" class="st1" width="0.1" height="19.8"/>
		<rect x="120.6" y="144.7" class="st1" width="0.1" height="19.8"/>
		<rect x="133.3" y="144.7" class="st1" width="0.1" height="19.8"/>
		<path class="st1" d="M133.3,145.3c-0.2-0.1-0.4-0.1-0.6,0l-15.3,12.5l-8.1-2.6c-0.2-0.1-0.4,0-0.5,0.1c-6.4,5.8-8.7,7.9-9.4,8.7
			v0.5h0.5c0.7-0.8,5.8-5.4,9.4-8.7l8,2.6c0.2,0.1,0.3,0,0.5-0.1l15.5-12.7C133.4,145.6,133.4,145.5,133.3,145.3L133.3,145.3z"/>
		<rect x="177.9" y="86.1" class="st1" width="108.9" height="118.8"/>
		<path class="st5" d="M283.5,148.5v52.8H179.4V140h24.1v29h12.1v-20h16.7v-21.4l3.4-2.1l15.7-9.4c1.6-0.9,3.6-0.4,4.5,1.2
			c0.3,0.5,0.5,1.1,0.5,1.7v63h16.2v-33.4h10.9V148.5z"/>
		<path class="st6" d="M176.7,82.5v122.1H232v-122L176.7,82.5z M230.3,200.9h-49.1V86.2h49.1L230.3,200.9z"/>
		<path class="st6" d="M232,82.5v122.1h55.1v-122L232,82.5z M283,200.9h-49.2V86.2h49.1L283,200.9z"/>
		<path class="st7" d="M52,336.8h40.3c3.5,0,6.3,2.8,6.3,6.3l0,0c0,3.5-2.8,6.3-6.3,6.3H52c-3.5,0-6.3-2.8-6.3-6.3l0,0
			C45.8,339.6,48.6,336.8,52,336.8z"/>
		<rect x="272.5" y="199.3" class="st8" width="13.1" height="4"/>
		<path class="st8" d="M274.7,198.2h3.6c1.2,0,2.1,1,2.1,2.1v1.9c0,1.2-1,2.1-2.1,2.1h-3.6c-1.2,0-2.1-1-2.1-2.1v-1.9
			C272.5,199.2,273.5,198.2,274.7,198.2z"/>
		<path class="st8" d="M289.2,236l2.3-0.3c1-0.1,1.8-1.1,1.7-2.1l-3.7-36.9c-0.1-1.1-1.1-1.9-2.2-1.8l-2.3,0.3
			c-1,0.1-1.8,1.1-1.7,2.1l3.7,36.9C287.1,235.3,288.1,236.1,289.2,236z"/>
		<path class="st9" d="M285.4,198.3c-0.1-0.6,0.4-1.1,0.9-1.2l0,0c0.6-0.1,1.1,0.4,1.2,1l0,0l3.5,34.7c0.1,0.6-0.4,1.1-0.9,1.2l0,0
			c-0.6,0.1-1.1-0.4-1.2-0.9c0,0,0,0,0-0.1"/>
		<path class="st8" d="M271.3,235.1h23.6c0.4,0,0.8,0.4,0.8,0.8l0,0c0,0.4-0.4,0.8-0.8,0.8h-23.6c-0.4,0-0.8-0.4-0.8-0.8l0,0
			C270.5,235.5,270.8,235.1,271.3,235.1z"/>
		<path class="st8" d="M288.4,175.4l-19,43.8c-0.3,0.7-0.8,1.3-1.5,1.7l-2.5,1.5l23.1-52.8l0.4,2.8
			C288.9,173.4,288.8,174.4,288.4,175.4z"/>
		<path class="st9" d="M291.2,164.8L265,225.3c-0.3,0.7-1.1,1-1.7,0.7l0,0l-1.9-0.9l27.6-63.6l1.4,0.6
			C291.2,162.7,291.7,163.8,291.2,164.8z"/>
		<path class="st1" d="M286.9,160.6l2,0.9l-27.6,63.6l-2.2-1c-0.5-0.3-0.8-0.9-0.5-1.4l26.7-61.5
			C285.5,160.6,286.2,160.3,286.9,160.6z"/>
		
			<linearGradient id="SVGID_1_" gradientUnits="userSpaceOnUse" x1="170.829" y1="462.1707" x2="120.3089" y2="469.2407" gradientTransform="matrix(-0.96 -0.27 -0.27 0.96 514.835 -224.775)">
			<stop  offset="4.000000e-02" style="stop-color:#F5F5F5;stop-opacity:0"/>
			<stop  offset="1" style="stop-color:#FFFFFF"/>
		</linearGradient>
		<path class="st10" d="M287.4,160.9l-15.5-21.3c-6.3-8.7-18.5-10.6-27.2-4.3c-2.6,1.9-4.7,4.4-6.1,7.3L211,200.5
			c-4.6,9.7-0.5,21.3,9.2,25.9c3.5,1.7,7.4,2.2,11.2,1.7l26.9-3.9"/>
		<path class="st4" d="M84.4,178.1c1.3,0,2.6,0.3,3.7,0.9c0.9,0.6,1.7,1.5,2.2,2.5c2.8,5,0.7,11.4-1.9,16.5
			c-2.9,5.6-6.5,10.8-9.4,16.5s-5.1,11.8-4.9,18.1c-2.7-4.6-5.4-9.2-7.1-14.2c-2.9-8.6-2.6-18,0.8-26.5
			C70.6,184.7,76.7,178,84.4,178.1z"/>
		<path class="st4" d="M101.7,216c2.1-0.6,4.3-0.7,6.5-0.4c3.5,0.5,6.8,2.6,8.1,5.9c1.7,4.5-1.3,9.7-5.5,12.2
			c-5.1,3-11.5,2.9-17.2,3.9c-4.1,0.8-8.3,2.3-10.9,5.5c-0.4-7.1,0-14.4,5.4-19.7c2.8-2.7,6.2-4.8,9.9-6.1
			C99.2,216.8,100.4,216.4,101.7,216z"/>
		<path class="st4" d="M49.1,215.9c0.9-1.2,2.2-2.1,3.6-2.5c1-0.3,2-0.5,3.1-0.4c3.1,0.4,5.4,3.2,6.7,6.1c1.1,2.6,1.8,5.3,1.9,8.1
			c0.3,6.3-1.9,13.2,1.4,18.6c-12-1.9-20.2-13.2-18.2-25.2c0.1-0.4,0.1-0.8,0.2-1.2C48,218.1,48.4,217,49.1,215.9z"/>
		<path class="st11" d="M80.3,191.4c-4.7,11.1-5.4,23.1-5.8,35c0,0.8,0,1.6-0.1,2.4c-0.2,6.8-0.8,13.6-0.7,20.5
			c0.1,3.2,0.3,6.4,0.7,9.6h-2.6c-0.5-1.7-1.2-3.4-2.1-5c-1.7-3.1-3.7-5.9-6-8.6l-2.1-2.5c-5-6-8.4-13.2-9.8-20.9
			c0-0.3,0.4-0.5,0.5-0.1c2,9.1,6.9,16.5,13,23.4l0,0c2.7,3,4.9,6.4,6.6,10c0.1,0.3,0.2,0.5,0.3,0.8c-0.3-3-0.3-6-0.3-8.9
			c0.2-5.5,0.5-11,0.8-16.5c0.1-1.2,0.1-2.5,0.2-3.7c0.6-12.2,1.6-24.5,6.7-35.7C79.9,190.6,80.5,190.9,80.3,191.4z"/>
		<path class="st11" d="M107.6,225c-8.9,4.3-18.1,7.8-23.6,16.6l-0.1,0.2c-3.3,5.3-5.7,11.1-7.2,17.1h-2c1.6-6.3,4.3-12.3,7.8-17.8
			l0.7-1c5.8-8.6,14.8-11.9,24-15.7C107.7,224.2,108.1,224.8,107.6,225z"/>
		<path class="st1" d="M55.5,261.3l0.1,1.3l0.3,4.4l0.6,10.4l0.4,6.8l0.8,14.5l0.2,3.7l0.8,13.6l0.4,7l0.8,14.6l0.2,2.9
			c0.1,1.2,0.5,2.1,1,2.1h25c0.5,0,0.9-0.9,1-2.2l0.4-8.7l0,0l0.1-1.9l0.3-6.1l0.2-3.9v-0.4l1.3-25.7v-0.1l0.1-1.6l0.4-7.3l0.1-3
			l0.1-1.2l0.4-8.8l0.2-3.1l0.4-7.3c0.1-1.5-0.4-2.8-1-2.8H56.5C55.9,258.4,55.4,259.8,55.5,261.3z"/>
		<polygon class="st12" points="84.6,286.8 84.6,286.8 84.7,284.6 84.7,284.6 		"/>
		<polygon class="st12" points="83.8,303 83.9,301.8 83.9,301.8 		"/>
		<polygon class="st12" points="84.1,296.5 84.1,296.5 84.3,294.2 		"/>
		<path class="st4" d="M55.5,261.3l0.1,1.3l0.3,4.4l0.6,10.4l0.4,6.8l0.8,14.5l0.2,3.7l0.8,13.6l0.4,7l0.8,14.6l0.2,2.9
			c0.1,1.2,0.5,2.1,1,2.1h25c0.5,0,0.9-0.9,1-2.2l0.4-8.7l0.1-1.9l0.3-6.1l0.2-3.9c0.2-4.9-5.7-10-8.9-13.1c-3.9-3.8-8.1-7.3-11-12
			c-3.1-5.1-4.6-11.3-5.3-17.2c-0.2-1.9-1.1-19.2-0.1-19.2h-6.3C55.9,258.4,55.4,259.8,55.5,261.3z"/>
		<path class="st13" d="M319.7,218.7h60.9c2.7,0,5,2.2,5,4.9v8.2c0,2.7-2.2,4.9-5,4.9h-60.9c-2.7,0-5-2.2-5-4.9v-8.2
			C314.7,220.9,317,218.7,319.7,218.7z"/>
		<polygon class="st2" points="380.6,221.3 350.9,221.3 350.9,234.2 380.6,234.2 376.6,227.7 		"/>
		<path class="st2" d="M335,227.7c0-2.1-1.7-3.9-3.9-3.9c-2.1,0-3.9,1.7-3.9,3.9s1.7,3.9,3.9,3.9l0,0
			C333.2,231.6,335,229.9,335,227.7z"/>
		<path class="st14" d="M326.1,203h54c2.2,0,3.9,1.8,3.9,3.9v7.9c0,2.2-1.8,3.9-3.9,3.9h-54c-2.2,0-3.9-1.8-3.9-3.9v-7.9
			C322.1,204.7,323.9,203,326.1,203z"/>
		<polygon class="st2" points="379.8,205.2 353.8,205.2 353.8,216.5 379.8,216.5 376.2,210.9 		"/>
		<path class="st14" d="M340.6,210.9c0-2.3-1.9-4.2-4.2-4.2c-2.3,0-4.2,1.9-4.2,4.2s1.9,4.2,4.2,4.2l0,0
			C338.7,215.1,340.6,213.2,340.6,210.9z"/>
		<path class="st2" d="M339.8,210.9c0-1.9-1.5-3.4-3.4-3.4s-3.4,1.5-3.4,3.4s1.5,3.4,3.4,3.4l0,0
			C338.3,214.3,339.8,212.7,339.8,210.9z"/>
		<path class="st13" d="M327,194.5h58.3c1.1,0,2,0.9,2,1.9v4.8c0,1.1-0.9,1.9-2,1.9H327c-1.1,0-2-0.9-2-1.9v-4.8
			C325.1,195.4,325.9,194.5,327,194.5z"/>
		<path class="st2" d="M338.6,196.9h39.8c1.1,0,2,0.9,2,2l0,0c0,1.1-0.9,2-2,2h-39.8c-1.1,0-2-0.9-2-2l0,0
			C336.6,197.7,337.5,196.9,338.6,196.9z"/>
		<path class="st14" d="M331.4,187.8h49.4c0.9,0,1.6,0.7,1.6,1.6v3.4c0,0.9-0.7,1.6-1.6,1.6h-49.4c-0.9,0-1.6-0.7-1.6-1.6v-3.4
			C329.8,188.6,330.5,187.8,331.4,187.8z"/>
		<path class="st8" d="M124.4,337.8h256c3.4,0,6.2,2.8,6.2,6.2l0,0c0,3.4-2.8,6.2-6.2,6.2h-256c-3.4,0-6.2-2.8-6.2-6.2l0,0
			C118.2,340.6,121,337.8,124.4,337.8z"/>
		<path class="st1" d="M351.7,360.6l-0.1,0.8H348C349.3,361.2,350.5,361,351.7,360.6z"/>
		<path class="st1" d="M383.3,242.8l-0.1,0.7l-3,23.8l-0.9,7.2l-3.7,28.9l-1.7,13.5l-3,22.8c-1.3,0.3-2.6,0.6-4,0.7H134.4l-0.2-1.2
			l-2.8-22.3l-1.3-10.2l-0.4-3.2l-0.1-0.4l-3.7-28.5l-0.9-7.2l-3-23.8l-0.1-0.7l-0.6-5H321l-1.2,5L383.3,242.8z"/>
		<path class="st14" d="M387.3,273.3l-4.6,25.7c-0.5,2-2,3.5-3.9,4.1c-0.8,0.2-1.6,0.4-2.4,0.4H128.3c-0.8,0-1.6-0.1-2.3-0.4l0,0
			c-1.9-0.5-3.4-2.1-3.9-4l-0.8-4.5l-3.8-21.2c-0.3-2.2,0.9-4.3,2.9-5.2c1-0.5,2.2-0.8,3.4-0.8H381c1.2,0,2.3,0.3,3.4,0.8
			C386.4,269.1,387.6,271.2,387.3,273.3z"/>
		<path class="st15" d="M388.8,240.2c0,1.8-1.5,3.3-3.3,3.3H119.8c-0.9,0-1.7-0.4-2.3-1c-1.3-1.3-1.3-3.4,0-4.7c0.6-0.6,1.5-1,2.3-1
			h265.6C387.3,236.9,388.8,238.3,388.8,240.2L388.8,240.2z"/>
		<path class="st16" d="M383.3,243.6l-3,23.8h0.8c1.2,0,2.3,0.3,3.4,0.8c2,0.9,3.2,3,2.9,5.1l-4.6,25.7c-0.5,2-2,3.5-3.9,4.1
			c-0.8,0.2-1.6,0.4-2.4,0.4h-0.8L374,317l-3,22.8c-1.3,0.3-2.6,0.6-4,0.7H134.4l-0.2-1.2l-2.8-22.3l-1.3-10.2l-0.4-3.2h-1.4
			c-0.8,0-1.6-0.1-2.3-0.4h122.3c22.3,0,42-14.5,48.6-35.7l0,0l7.5-23.8l1.8-5.7l0.3-0.9h79.1c1.8,0,3.3,1.5,3.3,3.3
			c0,0.1,0,0.2,0,0.2c-0.2,1.8-1.6,3.1-3.4,3.1L383.3,243.6z"/>
		<rect x="300.3" y="86.1" class="st1" width="110" height="85.3"/>
		<rect x="304.4" y="89.3" class="st2" width="101.7" height="37.2"/>
		<rect x="304.4" y="130.8" class="st2" width="101.7" height="37.5"/>
		<path class="st15" d="M315.5,168.4h6.4c0.5,0,0.9-0.3,0.9-0.8h-8.3C314.7,168.1,315.1,168.4,315.5,168.4z"/>
		<path class="st1" d="M311.3,138.7l2,23.8c0.1,0.5,0.5,0.9,1,0.9h9c0.5,0,0.9-0.4,1-0.9l2-23.8H311.3z"/>
		<path class="st1" d="M319.5,138.7l-2,23.7c0,0.5-0.5,1-1,1h6.7c0.5,0,0.9-0.4,1-0.9l2-23.8H319.5z"/>
		<polygon class="st17" points="322.5,138.7 321.6,163.4 315.9,163.4 315,138.7 		"/>
		<rect x="310.3" y="136.3" class="st11" width="17" height="2.4"/>
		<rect x="312" y="136.3" class="st15" width="4.1" height="2.4"/>
		<path class="st11" d="M322.9,167.6v-0.1v-4.1h-8.3v4.1v0.1H322.9z"/>
		<polygon class="st18" points="321.4,142 319.6,142 319.6,140.2 318.3,140.2 318.4,142 316.6,142 316.6,143.3 318.4,143.3 
			318.4,145.1 319.6,145 319.6,143.3 321.4,143.3 		"/>
		<g class="st19">
			<path class="st1" d="M315.5,168.4h6.4c0.5,0,0.9-0.3,0.9-0.8h-8.3C314.7,168.1,315.1,168.4,315.5,168.4z"/>
			<path class="st1" d="M311.3,138.7l2,23.8c0.1,0.5,0.5,0.9,1,0.9h9c0.5,0,0.9-0.4,1-0.9l2-23.8H311.3z"/>
			<path class="st1" d="M319.5,138.7l-2,23.7c0,0.5-0.5,1-1,1h6.7c0.5,0,0.9-0.4,1-0.9l2-23.8H319.5z"/>
			<polygon class="st1" points="322.5,138.7 321.6,163.4 315.9,163.4 315,138.7 			"/>
			<rect x="310.3" y="136.3" class="st1" width="17" height="2.4"/>
			<rect x="312" y="136.3" class="st1" width="4.1" height="2.4"/>
			<path class="st1" d="M322.9,167.6v-0.1v-4.1h-8.3v4.1v0.1H322.9z"/>
			<polygon class="st1" points="321.4,142 319.6,142 319.6,140.2 318.3,140.2 318.4,142 316.6,142 316.6,143.3 318.4,143.3 
				318.4,145.1 319.6,145 319.6,143.3 321.4,143.3 			"/>
		</g>
		<path class="st15" d="M389.2,126.1h4.7c0.3,0,0.6-0.2,0.7-0.6h-6.1C388.6,125.9,388.9,126.1,389.2,126.1z"/>
		<path class="st1" d="M386.1,104.4l1.4,17.4c0,0.4,0.4,0.6,0.7,0.6h6.6c0.4,0,0.7-0.3,0.7-0.6l1.5-17.4H386.1z"/>
		<path class="st1" d="M392.1,104.4l-1.4,17.3c0,0.4-0.3,0.7-0.7,0.7h4.9c0.4,0,0.7-0.3,0.7-0.6l1.5-17.4L392.1,104.4z"/>
		<polygon class="st17" points="394.3,104.4 393.7,122.4 389.5,122.4 388.9,104.4 		"/>
		<rect x="385.4" y="102.7" class="st11" width="12.4" height="1.8"/>
		<rect x="386.7" y="102.7" class="st15" width="3" height="1.8"/>
		<path class="st11" d="M394.6,125.5L394.6,125.5v-3.1h-6.1v3.1H394.6z"/>
		<polygon class="st18" points="393.5,106.8 392.2,106.8 392.2,105.5 391.3,105.5 391.3,106.8 390,106.8 390,107.7 391.3,107.7 
			391.4,109 392.3,109 392.2,107.7 393.5,107.7 		"/>
		<g class="st19">
			<path class="st1" d="M389.2,126.1h4.7c0.3,0,0.6-0.2,0.7-0.6h-6.1C388.6,125.9,388.9,126.1,389.2,126.1z"/>
			<path class="st1" d="M386.1,104.4l1.4,17.4c0,0.4,0.4,0.6,0.7,0.6h6.6c0.4,0,0.7-0.3,0.7-0.6l1.5-17.4H386.1z"/>
			<path class="st1" d="M392.1,104.4l-1.4,17.3c0,0.4-0.3,0.7-0.7,0.7h4.9c0.4,0,0.7-0.3,0.7-0.6l1.5-17.4L392.1,104.4z"/>
			<polygon class="st1" points="394.3,104.4 393.7,122.4 389.5,122.4 388.9,104.4 			"/>
			<rect x="385.4" y="102.7" class="st1" width="12.4" height="1.8"/>
			<rect x="386.7" y="102.7" class="st1" width="3" height="1.8"/>
			<path class="st1" d="M394.6,125.5L394.6,125.5v-3.1h-6.1v3.1H394.6z"/>
			<polygon class="st1" points="393.5,106.8 392.2,106.8 392.2,105.5 391.3,105.5 391.3,106.8 390,106.8 390,107.7 391.3,107.7 
				391.4,109 392.3,109 392.2,107.7 393.5,107.7 			"/>
		</g>
		<path class="st20" d="M336.8,147.8H330l-0.8,1.4c-0.8,1.4-1.2,3-1.2,4.6v12.4c0,1,0.8,1.9,1.9,1.9h7.2c1,0,1.9-0.8,1.9-1.9v-12.4
			c0-1.6-0.4-3.2-1.2-4.6L336.8,147.8z"/>
		<path class="st14" d="M336.8,147.8H330l-0.8,1.4c-0.8,1.4-1.2,3-1.2,4.6v12.4c0,1,0.8,1.9,1.9,1.9h7.2c1,0,1.9-0.8,1.9-1.9v-12.4
			c0-1.6-0.4-3.2-1.2-4.6L336.8,147.8z"/>
		<path class="st21" d="M338.8,157.3c0,3,0,5.9,0,8.9c0,1-0.8,1.9-1.9,1.9h-2.5c1,0,1.9-0.8,1.9-1.9v-12.4c0-1.6-0.4-3.2-1.2-4.6
			l-0.8-1.4h2.5l0.8,1.4C339,151.7,338.8,154.5,338.8,157.3z"/>
		<path class="st22" d="M337.3,146.6v0.4c0,0.6-0.4,1-0.9,1.2c-0.1,0-0.2,0-0.3,0h-5.8c-0.5,0-0.9-0.4-0.9-0.9l0,0v-0.8
			c0-0.2,0-0.4,0.1-0.5c0.2-0.6,0.8-1,1.4-1h4.9C336.7,145,337.3,145.7,337.3,146.6z"/>
		<path class="st13" d="M336.4,147.4v0.4c0,0.1,0,0.2,0,0.3c-0.1,0-0.2,0-0.3,0h-5.8c-0.5,0-0.9-0.4-0.9-0.9l0,0v-0.8
			c0-0.2,0-0.4,0.1-0.5c0.2-0.1,0.3-0.1,0.5-0.1h4.9C335.8,145.9,336.4,146.6,336.4,147.4z"/>
		<rect x="327.9" y="153.8" class="st13" width="8.4" height="10.9"/>
		<path class="st2" d="M335.1,156.4h-4.6c-0.3,0-0.6-0.3-0.6-0.6l0,0l0,0c0-0.3,0.3-0.6,0.6-0.6h4.6c0.3,0,0.6,0.3,0.6,0.6l0,0
			C335.7,156.1,335.5,156.4,335.1,156.4z"/>
		<path class="st2" d="M335.1,158.1h-4.6c-0.3,0-0.6-0.3-0.6-0.6l0,0l0,0c0-0.3,0.3-0.6,0.6-0.6h4.6c0.3,0,0.6,0.3,0.6,0.6l0,0
			C335.7,157.8,335.5,158.1,335.1,158.1z"/>
		<g class="st23">
			<path class="st1" d="M336.8,147.8H330l-0.8,1.4c-0.8,1.4-1.2,3-1.2,4.6v12.4c0,1,0.8,1.9,1.9,1.9h7.2c1,0,1.9-0.8,1.9-1.9v-12.4
				c0-1.6-0.4-3.2-1.2-4.6L336.8,147.8z"/>
			<path class="st1" d="M336.8,147.8H330l-0.8,1.4c-0.8,1.4-1.2,3-1.2,4.6v12.4c0,1,0.8,1.9,1.9,1.9h7.2c1,0,1.9-0.8,1.9-1.9v-12.4
				c0-1.6-0.4-3.2-1.2-4.6L336.8,147.8z"/>
			<path class="st24" d="M338.8,157.3c0,3,0,5.9,0,8.9c0,1-0.8,1.9-1.9,1.9h-2.5c1,0,1.9-0.8,1.9-1.9v-12.4c0-1.6-0.4-3.2-1.2-4.6
				l-0.8-1.4h2.5l0.8,1.4C339,151.7,338.8,154.5,338.8,157.3z"/>
			<path class="st1" d="M337.3,146.6v0.4c0,0.6-0.4,1-0.9,1.2c-0.1,0-0.2,0-0.3,0h-5.8c-0.5,0-0.9-0.4-0.9-0.9l0,0v-0.8
				c0-0.2,0-0.4,0.1-0.5c0.2-0.6,0.8-1,1.4-1h4.9C336.7,145,337.3,145.7,337.3,146.6z"/>
			<path class="st1" d="M336.4,147.4v0.4c0,0.1,0,0.2,0,0.3c-0.1,0-0.2,0-0.3,0h-5.8c-0.5,0-0.9-0.4-0.9-0.9l0,0v-0.8
				c0-0.2,0-0.4,0.1-0.5c0.2-0.1,0.3-0.1,0.5-0.1h4.9C335.8,145.9,336.4,146.6,336.4,147.4z"/>
			<rect x="327.9" y="153.8" class="st1" width="8.4" height="10.9"/>
			<path class="st1" d="M335.1,156.4h-4.6c-0.3,0-0.6-0.3-0.6-0.6l0,0l0,0c0-0.3,0.3-0.6,0.6-0.6h4.6c0.3,0,0.6,0.3,0.6,0.6l0,0
				C335.7,156.1,335.5,156.4,335.1,156.4z"/>
			<path class="st1" d="M335.1,158.1h-4.6c-0.3,0-0.6-0.3-0.6-0.6l0,0l0,0c0-0.3,0.3-0.6,0.6-0.6h4.6c0.3,0,0.6,0.3,0.6,0.6l0,0
				C335.7,157.8,335.5,158.1,335.1,158.1z"/>
		</g>
		<path class="st20" d="M381,100.9h-8.5l-1,1.8c-1,1.8-1.5,3.8-1.5,5.8V124c0,1.3,1.1,2.3,2.4,2.3l0,0h8.9c1.3,0,2.4-1.1,2.4-2.3
			l0,0v-15.6c0-2-0.5-4-1.5-5.8L381,100.9z"/>
		<path class="st14" d="M381,100.9h-8.5l-1,1.8c-1,1.8-1.5,3.8-1.5,5.8V124c0,1.3,1.1,2.3,2.4,2.3l0,0h8.9c1.3,0,2.4-1.1,2.4-2.3
			l0,0v-15.6c0-2-0.5-4-1.5-5.8L381,100.9z"/>
		<path class="st21" d="M383.6,112.9c0,3.7-0.1,7.4-0.1,11.2c0,1.3-1.1,2.3-2.4,2.3l0,0H378c1.3,0,2.4-1.1,2.4-2.3l0,0v-15.6
			c0-2-0.5-4-1.5-5.8l-1-1.8h3.1l1,1.8C383.8,105.8,383.6,109.4,383.6,112.9z"/>
		<path class="st22" d="M381.6,99.3v0.5c0,0.7-0.5,1.3-1.2,1.5c-0.1,0-0.2,0-0.4,0h-7.3c-0.6,0-1.1-0.5-1.1-1.1v-1
			c0-0.2,0-0.5,0.1-0.7c0.3-0.7,1-1.2,1.8-1.2h6c0.1,0,0.1,0,0.2,0C380.9,97.4,381.7,98.3,381.6,99.3z"/>
		<path class="st13" d="M380.5,100.5v0.5c0,0.1,0,0.2,0,0.4c-0.1,0-0.2,0-0.4,0h-7.3c-0.6,0-1.1-0.5-1.1-1.1v-1c0-0.2,0-0.5,0.1-0.7
			c0.2-0.1,0.4-0.1,0.7-0.1h6h0.2C379.8,98.5,380.6,99.4,380.5,100.5z"/>
		<rect x="370" y="108.5" class="st13" width="10.5" height="13.7"/>
		<path class="st2" d="M379,111.7h-5.8c-0.4,0-0.8-0.3-0.8-0.8l0,0c0-0.4,0.3-0.8,0.8-0.8h5.8c0.4,0,0.8,0.3,0.8,0.7l0,0l0,0
			C379.7,111.3,379.4,111.7,379,111.7z"/>
		<path class="st2" d="M379,113.8h-5.8c-0.4,0-0.8-0.3-0.8-0.8l0,0c0-0.4,0.3-0.8,0.8-0.8h5.8c0.4,0,0.8,0.3,0.8,0.8l0,0
			C379.7,113.5,379.4,113.8,379,113.8L379,113.8z"/>
		<g class="st23">
			<path class="st1" d="M381,100.9h-8.5l-1,1.8c-1,1.8-1.5,3.8-1.5,5.8V124c0,1.3,1.1,2.3,2.4,2.3l0,0h8.9c1.3,0,2.4-1.1,2.4-2.3
				l0,0v-15.6c0-2-0.5-4-1.5-5.8L381,100.9z"/>
			<path class="st1" d="M381,100.9h-8.5l-1,1.8c-1,1.8-1.5,3.8-1.5,5.8V124c0,1.3,1.1,2.3,2.4,2.3l0,0h8.9c1.3,0,2.4-1.1,2.4-2.3
				l0,0v-15.6c0-2-0.5-4-1.5-5.8L381,100.9z"/>
			<path class="st24" d="M383.6,112.9c0,3.7-0.1,7.4-0.1,11.2c0,1.3-1.1,2.3-2.4,2.3l0,0H378c1.3,0,2.4-1.1,2.4-2.3l0,0v-15.6
				c0-2-0.5-4-1.5-5.8l-1-1.8h3.1l1,1.8C383.8,105.8,383.6,109.4,383.6,112.9z"/>
			<path class="st1" d="M381.6,99.3v0.5c0,0.7-0.5,1.3-1.2,1.5c-0.1,0-0.2,0-0.4,0h-7.3c-0.6,0-1.1-0.5-1.1-1.1v-1
				c0-0.2,0-0.5,0.1-0.7c0.3-0.7,1-1.2,1.8-1.2h6c0.1,0,0.1,0,0.2,0C380.9,97.4,381.7,98.3,381.6,99.3z"/>
			<path class="st1" d="M380.5,100.5v0.5c0,0.1,0,0.2,0,0.4c-0.1,0-0.2,0-0.4,0h-7.3c-0.6,0-1.1-0.5-1.1-1.1v-1c0-0.2,0-0.5,0.1-0.7
				c0.2-0.1,0.4-0.1,0.7-0.1h6h0.2C379.8,98.5,380.6,99.4,380.5,100.5z"/>
			<rect x="370" y="108.5" class="st1" width="10.5" height="13.7"/>
			<path class="st1" d="M379,111.7h-5.8c-0.4,0-0.8-0.3-0.8-0.8l0,0c0-0.4,0.3-0.8,0.8-0.8h5.8c0.4,0,0.8,0.3,0.8,0.7l0,0l0,0
				C379.7,111.3,379.4,111.7,379,111.7z"/>
			<path class="st1" d="M379,113.8h-5.8c-0.4,0-0.8-0.3-0.8-0.8l0,0c0-0.4,0.3-0.8,0.8-0.8h5.8c0.4,0,0.8,0.3,0.8,0.8l0,0
				C379.7,113.5,379.4,113.8,379,113.8L379,113.8z"/>
		</g>
		<path class="st20" d="M351,147.8h-6.8l-0.8,1.4c-0.8,1.4-1.2,3-1.2,4.6v12.4c0,1,0.8,1.9,1.9,1.9h7.1c1,0,1.8-0.8,1.8-1.9v-12.4
			c0-1.6-0.4-3.2-1.2-4.6L351,147.8z"/>
		<path class="st14" d="M351,147.8h-6.8l-0.8,1.4c-0.8,1.4-1.2,3-1.2,4.6v12.4c0,1,0.8,1.9,1.9,1.9h7.1c1,0,1.8-0.8,1.8-1.9v-12.4
			c0-1.6-0.4-3.2-1.2-4.6L351,147.8z"/>
		<path class="st21" d="M353,157.3c0,3,0,5.9,0,8.9c0,1-0.8,1.9-1.9,1.9h-2.5c1,0,1.9-0.8,1.9-1.9v-12.4c0-1.6-0.4-3.2-1.2-4.6
			l-0.8-1.4h2.5l0.8,1.4C353.2,151.7,353,154.5,353,157.3z"/>
		<path class="st22" d="M351.5,146.6v0.4c0,0.6-0.4,1-0.9,1.2c-0.1,0-0.2,0-0.3,0h-5.8c-0.5,0-0.9-0.4-0.9-0.9l0,0v-0.8
			c0-0.2,0-0.4,0.1-0.5c0.2-0.6,0.8-1,1.4-1h4.9C350.9,145,351.5,145.7,351.5,146.6z"/>
		<path class="st13" d="M350.6,147.4v0.4c0,0.1,0,0.2,0,0.3c-0.1,0-0.2,0-0.3,0h-5.8c-0.5,0-0.9-0.4-0.9-0.9l0,0v-0.8
			c0-0.2,0-0.4,0.1-0.5c0.2-0.1,0.3-0.1,0.5-0.1h4.9C350,145.9,350.6,146.6,350.6,147.4z"/>
		<rect x="342.1" y="153.8" class="st13" width="8.4" height="10.9"/>
		<path class="st2" d="M349.3,156.4h-4.6c-0.3,0-0.6-0.3-0.6-0.6l0,0c0-0.3,0.3-0.6,0.6-0.6l0,0h4.6c0.3,0,0.6,0.3,0.6,0.6l0,0l0,0
			C349.9,156.1,349.7,156.4,349.3,156.4z"/>
		<path class="st2" d="M349.3,158.1h-4.6c-0.3,0-0.6-0.3-0.6-0.6l0,0c0-0.3,0.3-0.6,0.6-0.6l0,0h4.6c0.3,0,0.6,0.3,0.6,0.6l0,0l0,0
			C349.9,157.8,349.7,158.1,349.3,158.1z"/>
		<g class="st23">
			<path class="st1" d="M351,147.8h-6.8l-0.8,1.4c-0.8,1.4-1.2,3-1.2,4.6v12.4c0,1,0.8,1.9,1.9,1.9h7.1c1,0,1.8-0.8,1.8-1.9v-12.4
				c0-1.6-0.4-3.2-1.2-4.6L351,147.8z"/>
			<path class="st1" d="M351,147.8h-6.8l-0.8,1.4c-0.8,1.4-1.2,3-1.2,4.6v12.4c0,1,0.8,1.9,1.9,1.9h7.1c1,0,1.8-0.8,1.8-1.9v-12.4
				c0-1.6-0.4-3.2-1.2-4.6L351,147.8z"/>
			<path class="st24" d="M353,157.3c0,3,0,5.9,0,8.9c0,1-0.8,1.9-1.9,1.9h-2.5c1,0,1.9-0.8,1.9-1.9v-12.4c0-1.6-0.4-3.2-1.2-4.6
				l-0.8-1.4h2.5l0.8,1.4C353.2,151.7,353,154.5,353,157.3z"/>
			<path class="st1" d="M351.5,146.6v0.4c0,0.6-0.4,1-0.9,1.2c-0.1,0-0.2,0-0.3,0h-5.8c-0.5,0-0.9-0.4-0.9-0.9l0,0v-0.8
				c0-0.2,0-0.4,0.1-0.5c0.2-0.6,0.8-1,1.4-1h4.9C350.9,145,351.5,145.7,351.5,146.6z"/>
			<path class="st1" d="M350.6,147.4v0.4c0,0.1,0,0.2,0,0.3c-0.1,0-0.2,0-0.3,0h-5.8c-0.5,0-0.9-0.4-0.9-0.9l0,0v-0.8
				c0-0.2,0-0.4,0.1-0.5c0.2-0.1,0.3-0.1,0.5-0.1h4.9C350,145.9,350.6,146.6,350.6,147.4z"/>
			<rect x="342.1" y="153.8" class="st1" width="8.4" height="10.9"/>
			<path class="st1" d="M349.3,156.4h-4.6c-0.3,0-0.6-0.3-0.6-0.6l0,0c0-0.3,0.3-0.6,0.6-0.6l0,0h4.6c0.3,0,0.6,0.3,0.6,0.6l0,0l0,0
				C349.9,156.1,349.7,156.4,349.3,156.4z"/>
			<path class="st1" d="M349.3,158.1h-4.6c-0.3,0-0.6-0.3-0.6-0.6l0,0c0-0.3,0.3-0.6,0.6-0.6l0,0h4.6c0.3,0,0.6,0.3,0.6,0.6l0,0l0,0
				C349.9,157.8,349.7,158.1,349.3,158.1z"/>
		</g>
		<path class="st1" d="M247.8,235.3c-0.4,0.6-2.5,1.1-5.7,1.5H158l0.4-2.7l0.3-2c-3-2.7-5.2-7.6-5.6-11.6c-0.1-0.7-0.1-1.4-0.1-2.1
			c0.6-8.9,2.8-21,4.5-30C159,181,164,174.9,171,172l8.3-3.4l2.9-1.2c3.3-1.3,6.8-2.4,10.3-3.1c14.2-2.9,23.8,1.2,29.2,5
			c2.1,1.4,3.9,3.1,5.4,5l4.8,4.2l1.7,1.5c5.1,4.4,8.5,10.4,9.8,17C246,210.2,249.9,232.4,247.8,235.3z"/>
		<path class="st25" d="M237,230.2c0,0.9-0.6,1.7-1.5,2.1c-0.9,0.3-1.8,0.4-2.7,0.4c-6.4,0.1-13,1.1-18.7,4.2h-49.5
			c-1.5-0.2-3-0.7-4.3-1.4c-1.2-0.6-1.8-1.9-1.7-3.3c-1.6-1.5-2.9-3.3-3.8-5.3c-0.9-2-1.6-4.1-1.8-6.3c0.7-8.8,2.7-20.5,4.4-29.2
			l16.8-2.3l0.8,24.2c0.1,2.3,1.6,4.3,3.9,5l29.8,9l0.8,0.2l-1.6,5.6c0,0.1,0,0.1-0.1,0.2c1,0.2,2,0.3,3,0.4c1,0,1.9-0.2,2.8-0.6
			c1.3-0.5,2.5-1.2,3.7-1.9c0.1-0.1,0.2-0.1,0.3-0.2c3.1-2,5.6-4.4,6.1-4.3s3.1,0.6,5.7,1.2l4.6,0.9c0.6,0.1,1.3,0,1.9-0.3
			C236.5,228.8,236.9,229.5,237,230.2z"/>
		<path class="st26" d="M236.7,227.8c-0.2,0.3-0.5,0.5-0.8,0.6c-0.6,0.3-1.2,0.4-1.9,0.3l-4.6-0.9c-2.7-0.5-5.3-1-5.7-1.2
			s-3.1,2.2-6.1,4.3l-0.3,0.2c-1.1,0.8-2.4,1.4-3.7,1.9c-0.9,0.4-1.9,0.6-2.8,0.6c-1.3-0.1-2.5-0.3-3.8-0.6l1.7-5.9l0,0l0.1-0.3
			c0,0,8.4-4.4,12-5.7c0.3-0.1,0.5-0.2,0.7-0.2c3.1-0.8,15.2,5,15.4,5.9C237,227.3,236.9,227.6,236.7,227.8z"/>
		<path class="st26" d="M210.8,233.7c-0.9,0-1.8-0.1-2.7-0.2c-0.4-0.1-0.7-0.2-1.1-0.3l0,0v-0.1
			C208.3,233.4,209.5,233.6,210.8,233.7z"/>
		<path class="st26" d="M208.7,227.2l-1.7,6l0,0c-0.9-0.4-0.7-0.9-0.7-0.9L208.7,227.2L208.7,227.2z"/>
		<path class="st1" d="M208.7,227.2l-1.7,5.9v0.1c-0.2,0.7-0.6,1.2-1.1,1.7l0,0c-0.2,0.2-0.4,0.3-0.7,0.4c-0.5,0.3-1.1,0.4-1.6,0.4
			l-8.9-0.4l-1.1-0.1l-27.5-1.2c-6.3-0.3-11.7-4.9-12.8-11.1c-0.1-0.8-0.3-1.6-0.3-2.3c0.6-8.8,2.8-20.6,4.5-29.3l16.8-2.3l0.2,7.5
			l0.5,16.7c0.1,2.3,1.6,4.3,3.9,5L208.7,227.2z"/>
		<path class="st11" d="M222.3,194.9c0.6,1.4,0.6,3.1-0.1,4.4l-7.7,15.6v0.4l-0.1-0.3l-0.1,0.1c0,0,0-0.1,0-0.3L204,182.4
			c-0.2-0.5-0.7-0.8-1.2-0.6c-0.2,0.1-0.4,0.2-0.5,0.4l-0.5,0.8c-0.4,0.6-1.2,0.8-1.8,0.4c-0.2-0.1-0.3-0.2-0.4-0.4
			c-2.4-3.7-9.3-8.9-13.9-12.2c1.9-3.8,5.4-6.7,9.4-7.9c1.2-0.4,2.4-0.5,3.6-0.5c6.8,0.1,13.4,2.1,19.1,5.9l0.1,0.1
			c1.3,0.8,2.4,1.9,3.3,3.1c2.1,3.2,1.1,7.5,1.8,11.2l-2.5,3.9c-0.8,1.2-0.9,2.7-0.3,3.9L222.3,194.9z"/>
		<path class="st26" d="M220.8,174.8l-6.8,0.9c0,0-1.4,0-3.4-0.1c-3.4-0.1-8.6-0.5-13.3-1.2c-8.1-1.2-14.6-3.5-7.2-7.9
			c0.4-0.2,0.7-0.4,1.1-0.7c3.4-2.1,6.2-5.1,8-8.6c1.7-3.5,2.1-7.6,0.9-11.4c0,0,14.2-3,13.6,7.7c0,0.8-0.1,1.5,0,2.3
			c0.1,3.3,0.9,6.5,2.4,9.4c0.7,1.4,1.7,2.7,2.9,3.7L220.8,174.8z"/>
		<path class="st9" d="M227.1,123.2c-0.4,6.8-1.9,7.9-6.8,7.2c-1.7-0.3-3.9-0.7-6.5-1.3c-9.4-1.9-13.7,11.2-14.6,12.4
			c-0.1-0.1-0.2-0.1-0.2-0.2c-0.2-0.5-0.4-1-0.8-1.5l0,0c-0.3-0.4-0.6-0.7-0.9-1l1.1,4.3l1.2,4.8c0,0-0.5,1.8-3.4,1.6s-8-5-10.6-9.5
			s-1.5-8,0-15.4s6.5-7.7,12.7-8c5.2-0.2,5.6-1.9,8.7-4.3c0.7-0.6,1.5-1.1,2.3-1.6C214.4,107.5,227.7,114,227.1,123.2z"/>
		<path class="st9" d="M199.2,141.6c-0.1,0.1-0.1,0.1-0.2,0s0-0.1,0-0.2C199.1,141.4,199.1,141.5,199.2,141.6z"/>
		<path class="st8" d="M206.8,112.3c-1,2.2-1.9,4.5-2.5,6.8c-1.1,3.4-2.6,7-5.5,9c-2.2,1.6-5.3,2.2-6.7,4.6c-1.3,2.2-0.6,5,0.7,7.2
			c0.7,1.1,3.1,2.1,5.5,3.2l1.2,4.8c0,0-0.5,1.8-3.4,1.6s-8-5-10.6-9.5s-1.5-8,0-15.4s6.5-7.7,12.7-8
			C203.3,116.4,203.8,114.8,206.8,112.3z"/>
		<path class="st26" d="M225.6,146.4c-0.4,0.3-0.7,0.5-1.1,0.6c-0.9,0.5-1.7,1.2-2.3,2c-1.7,2.3-3.9,4.3-6.4,5.8
			c-0.4,0.2-0.8,0.5-1.3,0.6c-2.6,1.1-4.6,1.4-7,0.3c-2.7-1.3-4.2-3.5-6.3-5.6c-0.2-0.1-0.3-0.3-0.4-0.5c-1.1-1.3-2.1-2.9-3.6-3.8
			l-0.2-0.1c-0.4-0.1-0.8-0.3-1.2-0.6c-1-0.7-1.7-1.7-2-2.9l0,0c0-0.5,0-0.9,0.1-1.3c0.3-1,1-1.8,1.9-2.1c0.2,0,0.5,0,0.7,0h0.1
			l0.4,0.1c0,0-0.1,0,0,0s0,0.1,0.3-0.1s0.4-0.7,0.6-1c3.1-5,10.6-10.6,15.2-11.7c8.9-2.3,6.6,4.1,7.6,9.1v0.2
			c1.1,5,1.9,6.4,5.1,9.6C226.4,145.5,226.1,145.9,225.6,146.4z"/>
		<path class="st9" d="M227.1,123.2c-0.6,9.2-3,8-13.3,5.9S199.3,143,199,141.5c-0.3-1-0.9-2-1.8-2.7l-3.5-5.9l16.2-9.8L227.1,123.2
			L227.1,123.2z"/>
		<path class="st25" d="M212.6,218.8l-0.1-0.3l-0.1-0.2l-10.9-34.1c-0.2-0.5-0.8-0.8-1.3-0.6c-0.2,0.1-0.4,0.2-0.5,0.4l-0.5,0.8
			c-0.4,0.6-1.3,0.8-1.9,0.4c-0.2-0.1-0.3-0.3-0.4-0.4c-2.5-3.9-9.8-9.4-14.6-12.8l-2.1-1.5c-0.7-0.5-1-1.3-0.9-2.1l2.9-1.2
			c3.3-1.3,6.8-2.4,10.3-3.1c4.3,6,12.4,12.9,16.3,16.2c1.5,1.2,2.4,3.1,2.5,5l1.2,31l0,0l0.1,2.1V218.8z"/>
		<path class="st1" d="M214.6,215.3l-0.1-0.3v-0.2l-10.3-32.4c-0.2-0.5-0.7-0.8-1.2-0.6c-0.2,0.1-0.4,0.2-0.5,0.4L202,183
			c-0.4,0.6-1.2,0.8-1.8,0.4c-0.2-0.1-0.3-0.2-0.4-0.4c-2.4-3.7-9.3-8.9-13.9-12.2c-0.7-0.5-1.4-1-2-1.4c-0.9-0.6-1.1-1.9-0.5-2.8
			c0.1-0.2,0.3-0.4,0.5-0.5c1.9-1.2,4.4-2.8,6.5-4.1c1.9-1.1,3.3-1.9,3.4-1.7c0.4,0.8,0.8,1.6,1.3,2.3l0.2,0.3
			c2.9,4.1,7.8,8.9,11.8,12.4c1.5,1.3,2.9,2.5,4,3.4c1.4,1.2,2.3,2.9,2.3,4.7l1.1,29.4l0,0l0.1,2L214.6,215.3L214.6,215.3z"/>
		<path class="st25" d="M232,178.3c-0.2,1-0.6,1.8-1.2,2.6l-3.5,4.6l-3.3,4.3c-1,1.3-1.3,3-0.7,4.5l1.8,5.1c0.6,1.7,0.4,3.6-0.5,5.1
			l-10.3,17.3l-0.1,0.2l-0.1,0.1c0,0,0-0.1,0-0.3c0-0.4,0.1-1.2,0.2-2.3l0,0c0.7-6.6,2.4-24.1,2.5-32.6c0.1-6.7,2.6-13.4,4.5-17.4
			c0.1-0.2,0.2-0.3,0.3-0.5c2.1,1.4,3.9,3.1,5.4,5L232,178.3z"/>
		<path class="st1" d="M225.8,178.6l-2.7,4.2l-2.5,3.9c-0.8,1.2-0.9,2.7-0.3,3.9l1.9,4.3c0.6,1.4,0.6,3.1-0.1,4.4l-7.7,15.6
			l-0.1,0.1l-0.1,0.1c0,0,0-0.1,0-0.3c0-0.4,0-1,0-1.9l0,0c0.1-5.7,0.4-20.9-0.1-28.2c-0.4-5.8,1.4-11.7,2.7-15.2
			c0.2-0.4,0.4-0.8,0.8-1.1c1-0.9,2.5-0.9,3.5-0.1l2.9,2.2C226.9,172.3,227.6,175.9,225.8,178.6z"/>
		<path class="st27" d="M220.7,135.1c-0.7,0.1-1.3,0.2-2,0.2c-2.8-0.1-5.5-1.7-8.3-1.3s-4.8,2.6-6.2,4.9c-0.4,0.8-1,1.6-1.6,2.3
			s-1.6,1.1-2.5,0.9c-0.4-0.1-0.7-0.2-1-0.5c0.9-1.2,5.2-14.3,14.6-12.4c2.7,0.5,4.8,1,6.5,1.3C220.4,131.9,220.5,133.5,220.7,135.1
			z"/>
		<path class="st27" d="M216.1,165.2c-0.3,0.1-0.5,0.2-0.8,0.2c-1.3,0.1-2.4-1-3.3-1.9c-1.1-1.2-2.3-2.2-3.6-3
			c-1.2-0.6-2.3-1.2-3.4-1.9c-1.6-1.4-2.7-3.3-3.1-5.4c-0.4-1.2-0.6-2.4-1-3.5c0.1,0.2,0.3,0.3,0.4,0.5c2.1,2.1,3.5,4.4,6.3,5.6
			c1.9,0.9,4.2,1,6.1,0.1C213.7,159.1,214.5,162.3,216.1,165.2z"/>
		<path class="st27" d="M210.5,175.6c-1,0-2.2-0.1-3.5-0.2c-4-3.5-8.9-8.2-11.8-12.4l-0.2-0.3c1.7-1.6,3.1-3.5,4.1-5.5
			c0.3,0.2,0.5,0.5,0.6,0.9c0.2,0.9-0.5,1.4-0.9,2.1c-1.6,2.5-0.1,5,2.1,6.5c1.5,1,3.2,1.7,4.4,3c1,1,1.6,2.3,2.5,3.3
			S209.7,174.7,210.5,175.6z"/>
		<path class="st25" d="M208.7,227.2l-29.7-9c-2.2-0.7-3.8-2.7-3.9-5l-0.5-16.7c0.3,0.1,0.5,0.3,0.7,0.5c1.2,1.3,2.3,2.8,3,4.4
			c0.7,1.5,1.1,3.1,1.8,4.6c1.1,2.3,2.5,4.5,4.1,6.4c2.2,2.9,4.6,5.8,7.7,7.5c1.9,1,3.9,1.7,6,2.2c4.1,1.2,8.4,2.3,12.6,1.7
			c3.6-0.5,6.8-2.2,10.4-2.6c-3.6,1.3-12,5.7-12,5.7L208.7,227.2z"/>
		<path class="st6" d="M213,232.2l30.5-5.9c1.1-0.2,2.1,0.4,2.4,1.5c0,0.2,0.1,0.3,0,0.5v7.8h-36.1
			C209.8,234.2,211.1,232.6,213,232.2z"/>
		<path class="st9" d="M246,230.6v6.2h-36.1v-0.4c0-0.6,0.5-1.2,1.1-1.3l33.4-5.8c0.7-0.1,1.4,0.3,1.6,1
			C246,230.4,246,230.5,246,230.6z"/>
	</g>
</g>
<rect class="st28" width="450" height="401"/>
<g>
	<path class="st29" d="M190.8,207.5c-0.2,0.4-0.4,0.7-0.6,1.1c0.4,0.4,1.6,1.4,2.3,0.9c0.2-0.2,0.4-0.4,0.4-0.7
		c0-0.4-0.1-0.6-0.5-0.8C191.9,207.8,191.4,207.7,190.8,207.5z"/>
	<path class="st29" d="M186.3,207.3c0.1,0.4,0.3,0.8,0.4,1.2c-0.5,0.3-1.9,1.1-2.5,0.5c-0.3-0.3-0.4-0.7-0.2-1.1
		C184.2,207.2,185.7,207.3,186.3,207.3z"/>
	<path class="st29" d="M222.9,195.6c1.5,0.1,2.9,2,3,4.2c0.1,2.2-1.1,3.9-2.6,3.7c-1.5-0.1-2.9-2-3-4.2S221.3,195.5,222.9,195.6z"/>
	<g>
		<path class="st30" d="M186.1,194.4c-0.3,0-0.6-0.3-0.6-0.6c0-0.4,0-0.9,0-1.4c-0.2-2.6-0.1-5.3,0.3-7.9c0.5-1.5,1.7-2.7,3.2-3.4
			c0.2-0.1,0.4-0.1,0.6,0c1.5,0.7,2.7,2.1,3.2,3.7c0.2,2.1,0.2,4.3,0.1,6.5c-0.1,1-0.1,2-0.1,2.8c0,0.3-0.3,0.6-0.6,0.6c0,0,0,0,0,0
			l0,0c-0.3,0-0.6-0.3-0.6-0.6c0.1-0.8,0-1.8,0.1-2.9c0.2-2.1,0.1-4.1-0.1-6.2c-0.4-1.2-1.2-2.1-2.2-2.7c-1.1,0.5-1.9,1.4-2.3,2.5
			c-0.3,2.5-0.3,5-0.2,7.5c0,0.5,0,1,0,1.4C186.8,194.1,186.5,194.3,186.1,194.4L186.1,194.4L186.1,194.4z"/>
		<path class="st30" d="M189.3,182.3c-0.3,0-0.6-0.3-0.6-0.7c0.1-1.4,0.1-2.9,0.2-4.5c0.1-1.6,0.1-2.9,0.2-4.3
			c0.2-3.6,0.6-10.3,4.6-12.4c0.3-0.2,0.7,0,0.8,0.3c0.2,0.3,0.1,0.7-0.2,0.8l0,0c-3.4,1.7-3.8,8-3.9,11.4c-0.1,1.4-0.1,2.9-0.2,4.2
			c0,1.4-0.1,3.1-0.2,4.5C189.9,182,189.7,182.2,189.3,182.3L189.3,182.3z"/>
		<path class="st31" d="M186.1,208.6c-0.2,0-0.4-0.2-0.5-0.4c-0.1-0.3,0-0.7,0.3-0.8l0,0c1.8-0.9,3.5-2.1,4.9-3.5
			c0.5-1,0.6-4.7,0.6-7.2c0.1-0.8,0-1.6,0-2.2c0-0.3,0.3-0.6,0.6-0.6c0,0,0,0,0,0l0,0c0.3,0,0.6,0.3,0.6,0.6c0,0,0,0,0,0
			c-0.1,0.7-0.1,1.5,0,2.2c0,3.7-0.1,6.5-0.8,7.7c-1.5,1.7-3.4,3.1-5.5,4.1C186.3,208.6,186.2,208.6,186.1,208.6z"/>
		<path class="st31" d="M191,209l-0.3,0c-1.7-1.2-3-2.7-4.1-4.5c-0.7-1.3-1.1-4.7-1.1-10.2c0-0.3,0.3-0.6,0.6-0.6c0,0,0,0,0,0l0,0
			c0.3,0,0.6,0.2,0.6,0.6l0,0c0,6.6,0.5,8.9,0.9,9.7c0.9,1.6,2.2,2.9,3.6,4c0.3,0.2,0.3,0.6,0.2,0.8c0,0,0,0,0,0
			C191.4,209,191.2,209.1,191,209L191,209z"/>
		<path class="st32" d="M223.6,195.3c1.5,0.1,2.9,2,3,4.2s-1.1,3.9-2.6,3.7c-1.5-0.1-2.9-2-2.9-4.2
			C220.9,196.8,222.1,195.2,223.6,195.3z"/>
		<path class="st33" d="M223.8,196.9c0.8,0.1,1.5,1.1,1.5,2.4c0,1.2-0.6,2.2-1.4,2.1s-1.5-1.1-1.5-2.4
			C222.4,197.8,223,196.8,223.8,196.9z"/>
		<path class="st30" d="M223.8,198.4c-0.3,0-0.5-0.3-0.6-0.5c-0.8-6.3-1.2-12.6-1.2-19c0-6.9-1-11.3-3.3-12.9
			c-0.3-0.2-0.3-0.6-0.1-0.8l0,0c0.2-0.3,0.6-0.3,0.8-0.1c0,0,0,0,0,0c2.6,1.9,3.8,6.4,3.7,13.9c0,6.3,0.4,12.6,1.2,18.9
			C224.5,198.2,224.3,198.4,223.8,198.4L223.8,198.4L223.8,198.4z"/>
	</g>
</g>
</svg>
