<?xml version="1.0" encoding="utf-8"?>
<!-- Generator: Adobe Illustrator 24.0.0, SVG Export Plug-In . SVG Version: 6.00 Build 0)  -->
<svg version="1.1" id="Layer_1" xmlns="http://www.w3.org/2000/svg" xmlns:xlink="http://www.w3.org/1999/xlink" x="0px" y="0px"
	 viewBox="0 0 450 401" style="enable-background:new 0 0 450 401;" xml:space="preserve">
<style type="text/css">
	.st0{fill:none;stroke:#236D9B;stroke-linecap:round;stroke-miterlimit:10;}
	.st1{fill:#72C5E3;}
	.st2{fill:#55D3B9;}
	.st3{fill:#FFFFFF;}
	.st4{fill:#ECEDF2;}
	.st5{opacity:0.82;fill:#213949;enable-background:new    ;}
	.st6{fill:#213949;}
	.st7{fill:#C6EDF7;}
	.st8{opacity:5.000000e-02;enable-background:new    ;}
	.st9{fill:#AAB3BA;}
	.st10{fill:#C3C9CE;}
	.st11{fill:#3DA3E3;}
	.st12{fill:#54667F;}
	.st13{opacity:0.25;fill:#020202;enable-background:new    ;}
	.st14{opacity:0.54;fill:#AAB3BA;enable-background:new    ;}
	.st15{fill:#45C6DB;}
	.st16{fill:#FFBD9A;}
	.st17{fill:#005D91;}
	.st18{opacity:0.39;fill:#020202;enable-background:new    ;}
	.st19{fill:#FF3A56;}
	.st20{opacity:0.8;}
	.st21{opacity:0.4;fill:#FFFFFF;enable-background:new    ;}
	.st22{opacity:0.3;fill:#213949;enable-background:new    ;}
	.st23{fill:#199ECF;}
	.st24{opacity:0.7;}
	.st25{fill:#2EC4A9;}
	.st26{opacity:0.4;}
	.st27{opacity:0.3;}
	.st28{opacity:0.5;}
	.st29{fill:#FC123F;}
	.st30{fill:#18127B;}
	.st31{fill:#01013F;}
	.st32{opacity:0.65;fill:url(#SVGID_1_);enable-background:new    ;}
	.st33{fill:#FFFFFF;stroke:#5AB3B7;stroke-miterlimit:10;}
	.st34{fill:#E4E7E9;}
	.st35{opacity:0.79;fill:#213949;enable-background:new    ;}
	.st36{fill:#FFAB8B;}
	.st37{opacity:0.81;}
	.st38{fill:#65EACA;}
	.st39{opacity:0.35;}
	.st40{fill:#F9F9E8;}
	.st41{opacity:0.32;fill:#4F190B;enable-background:new    ;}
	.st42{fill:#F7FFF3;}
	.st43{fill:#3A9CD6;}
	.st44{opacity:0.49;}
	.st45{opacity:0.32;fill:#FFFFFF;enable-background:new    ;}
	.st46{fill:#F0F1F1;}
	.st47{fill:#D0D2D3;}
	.st48{fill:#BBBDBF;}
	.st49{opacity:0.64;fill:#3DA3E3;enable-background:new    ;}
	.st50{fill:#00BBED;}
	.st51{fill:none;}
</style>
<title>Artboard 1</title>
<g>
	<g id="Calque_1">
		<line class="st0" x1="14.5" y1="348.7" x2="434.5" y2="348.7"/>
		<path class="st1" d="M260.2,182.6c1.1,0,2.3,0.2,3.3,0.8c0.8,0.5,1.5,1.3,2,2.2c2.5,4.5,0.6,10.1-1.7,14.6
			c-2.6,5-5.8,9.6-8.3,14.6s-4.5,10.4-4.3,16c-2.5-4-4.6-8.2-6.3-12.6c-2.5-7.7-2.3-16,0.7-23.4C248,188.5,253.5,182.6,260.2,182.6z
			"/>
		<path class="st1" d="M275.6,216.2c1.9-0.5,3.8-0.6,5.7-0.4c3.1,0.4,6.1,2.3,7.1,5.2c1.5,4-1.2,8.6-4.9,10.8
			c-4.5,2.6-10.2,2.5-15.2,3.5c-3.6,0.7-7.3,2-9.7,4.8c-0.4-6.3,0-12.8,4.8-17.4c2.5-2.4,5.5-4.2,8.8-5.4
			C273.3,216.9,274.4,216.5,275.6,216.2z"/>
		<path class="st1" d="M229,216.1c0.8-1.1,1.9-1.9,3.2-2.3c0.9-0.3,1.8-0.4,2.7-0.3c2.8,0.3,4.8,2.9,5.9,5.4c1,2.3,1.6,4.7,1.7,7.1
			c0.3,5.6-1.7,11.6,1.2,16.4c-10.6-1.7-17.9-11.6-16.2-22.2c0.1-0.4,0.1-0.7,0.2-1.1C227.9,218.1,228.4,217.1,229,216.1z"/>
		<path class="st2" d="M256.6,194.4c-4.2,9.8-4.8,20.4-5.1,30.9c0,0.7-0.1,1.4-0.1,2.2c-0.2,6-0.7,12.1-0.6,18.1
			c0.1,2.9,0.3,5.7,0.6,8.5h-2.3c-0.5-1.5-1.1-3-1.8-4.4c-1.5-2.7-3.3-5.3-5.3-7.6l-1.8-2.2c-4.5-5.3-7.4-11.7-8.6-18.5
			c0-0.3,0.4-0.4,0.5-0.1c1.8,8.1,6.1,14.6,11.5,20.7l0,0c2.3,2.6,4.3,5.6,5.8,8.8c0.1,0.2,0.2,0.5,0.3,0.7
			c-0.2-2.6-0.3-5.3-0.3-7.9c0.1-4.9,0.4-9.8,0.7-14.6c0.1-1.1,0.1-2.2,0.2-3.3c0.5-10.8,1.4-21.7,5.9-31.6
			C256.2,193.7,256.8,194,256.6,194.4z"/>
		<path class="st2" d="M280.8,224.1c-7.9,3.8-16,6.9-20.9,14.7c0,0.1-0.1,0.1-0.1,0.2c-2.9,4.7-5,9.8-6.3,15.1h-1.7
			c1.4-5.6,3.8-10.9,6.9-15.8c0.2-0.3,0.4-0.6,0.6-0.9c5.1-7.6,13.1-10.5,21.3-13.9C280.9,223.4,281.2,224,280.8,224.1z"/>
		<path class="st3" d="M234.6,256.3l0.1,1.2l0.2,3.9l0.5,9.2l0.4,6l0.8,12.8l0.2,3.3l0.7,12l0.4,6.2l0.8,13l0.1,2.6
			c0.1,1.1,0.4,1.9,0.9,1.9h22.2c0.5,0,0.8-0.8,0.9-1.9l0.4-7.7l0,0l0.1-1.7l0.3-5.4l0.2-3.4v-0.3l1.1-22.8v-0.1l0.1-1.4l0.3-6.5
			l0.1-2.7l0-1.1l0.4-7.8l0.1-2.7l0.3-6.5c0.1-1.3-0.3-2.5-0.9-2.5h-29.7C235,253.8,234.6,254.9,234.6,256.3z"/>
		<polygon class="st4" points="260.4,278.9 260.4,278.9 260.5,276.9 260.5,276.9 		"/>
		<polygon class="st4" points="259.7,293.2 259.8,292.2 259.8,292.2 		"/>
		<polygon class="st4" points="260,287.4 260,287.4 260.1,285.4 		"/>
		<path class="st1" d="M234.6,256.3l0.1,1.2l0.2,3.9l0.5,9.2l0.4,6l0.8,12.8l0.2,3.3l0.7,12l0.4,6.2l0.8,13l0.1,2.6
			c0.1,1.1,0.4,1.9,0.9,1.9h22.2c0.5,0,0.8-0.8,0.9-1.9l0.4-7.7l0.1-1.7l0.3-5.4l0.2-3.4c0.1-4.3-5-8.9-7.9-11.6
			c-3.5-3.3-7.2-6.4-9.7-10.6c-2.8-4.6-4.1-10-4.7-15.2c-0.2-1.7-1-17-0.1-17h-5.6C235,253.8,234.6,254.9,234.6,256.3z"/>
		<path class="st5" d="M331.5,334.7h55.1c3.8,0,6.9,3.1,6.9,6.9l0,0c0,3.8-3.1,6.9-6.9,6.9h-55.1c-3.8,0-6.9-3.1-6.9-6.9l0,0
			C324.6,337.8,327.7,334.7,331.5,334.7z"/>
		<path class="st6" d="M51.9,334.5h233.8c3.7,0,6.7,3,6.7,6.7l0,0c0,3.7-3,6.7-6.7,6.7H51.9c-3.7,0-6.7-3-6.7-6.7l0,0
			C45.2,337.5,48.2,334.5,51.9,334.5z"/>
		<rect x="288.1" y="101.8" class="st7" width="96.5" height="105.2"/>
		<path class="st8" d="M381.6,157.1v46.8h-92.1v-54.3h21.4v25.6h10.6v-17.6h14.8v-19l3-1.8l13.9-8.3c1.4-0.8,3.2-0.4,4,1
			c0.3,0.5,0.4,1,0.4,1.5v55.8h14.3v-29.6H381.6z"/>
		<path class="st3" d="M287.1,98.7v108.1H336V98.7H287.1z M334.5,203.5H291V101.9h43.5V203.5z"/>
		<path class="st3" d="M336,98.7v108.1h48.8V98.7H336z M381.1,203.5h-43.5V101.9h43.5V203.5z"/>
		<path class="st9" d="M250.4,321.5h4.8c0-5.8-0.2-11.5-0.1-17.3l-4.7-0.1C250.3,309.9,250.4,315.7,250.4,321.5z"/>
		<path class="st10" d="M255,304.2c0,5.8,0.1,11.5,0.1,17.3h-1.5c0-5.8-0.1-11.5-0.1-17.3L255,304.2z"/>
		<path class="st11" d="M287.1,254.5L287.1,254.5c5.3-0.1,5.5-2.5,7-8.1c2.8-10.6,4.9-17,3.8-27.9c-0.6-5.8-2.7-6.4-6.3-6.8l0,0
			c-3.6-0.3-6.1,1.1-6.3,6.2c-0.4,9.7-2.1,18.8-3.9,29C280.5,252.3,281.8,254.5,287.1,254.5z"/>
		<path class="st11" d="M287.1,254.5L287.1,254.5c5.3-0.1,5.5-2.5,7-8.1c2.8-10.6,4.9-17,3.8-27.9c-0.6-5.8-2.7-6.4-6.3-6.8l0,0
			c-3.6-0.3-6.1,1.1-6.3,6.2c-0.4,9.7-2.1,18.8-3.9,29C280.5,252.3,281.8,254.5,287.1,254.5z"/>
		<path class="st11" d="M287.1,254.5L287.1,254.5c5.3-0.1,5.5-2.5,7-8.1c2.8-10.6,4.9-17,3.8-27.9c-0.6-5.8-2.7-6.4-6.3-6.8l0,0
			c-3.6-0.3-6.1,1.1-6.3,6.2c-0.4,9.7-2.1,18.8-3.9,29C280.5,252.3,281.8,254.5,287.1,254.5z"/>
		<path class="st11" d="M281.4,246.9c1.9-10.5,3.5-18.9,3.9-29.2c0.2-5.5,2.8-5,6.2-6.3c0.3-0.1,0.6,0.3,0.9,0.1
			c-3.1,1.9-5.3,1.2-5.4,6.3c-0.3,10.6-2.1,19-4,29.7c-0.9,5.2,0.4,6.1,4.9,7.1c-0.3,0-0.5,0.1-0.9,0
			C282,253.9,280.4,252.5,281.4,246.9z"/>
		<path class="st12" d="M298.7,239.7c-0.2,0.5-0.3,1-0.5,1.5C298.4,240.7,298.5,240.2,298.7,239.7z"/>
		<path class="st12" d="M294.6,263.9c1.1,5.1,6.5,13.9,5.3,18.3c-0.5,1.9-3.4,3.3-5.3,3.6h-0.3c-8.1,0.2-14-2.4-22.5-1.7
			c0-0.6-0.1-1.3-0.1-1.9c8.9-1,14,1.9,22.6,1.8c1.3,0,3.6-1.1,3.8-2.4c0.6-3.6-4.3-13.1-5.4-17.5c-0.8-3.3-0.8-9.4,0.1-11.5
			c2-4.4,2.3-6.8,3-9.8c-0.3,0.1-0.5,0.2-0.8,0.4c2.6-8.7,4.7-13,3.3-22.5c0.9,0.6,1.8,1.2,2.7,1.9c0.5,5.8-0.2,11.6-2.2,17.1v0.1
			c-0.2,0.5-0.4,1-0.5,1.5l0,0c-1.3,4-1.2,6.5-3.5,11.8C293.9,254.8,294,260.9,294.6,263.9z"/>
		<path class="st12" d="M298.8,239.6L298.8,239.6L298.8,239.6z"/>
		<path class="st12" d="M237.5,289.2c11-1.2,21.6-1.2,32.6-1.5c1.7,0,3.2-1.1,3.8-2.6c0.3-0.9,0.7-1.7,1-2.6
			c-14,1.9-28.3,0.5-42.8,2.5c0.4,0.7,0.9,1.5,1.3,2.2C234.3,288.6,235.9,289.4,237.5,289.2z"/>
		<path class="st12" d="M251.1,304.3h2.9c1.8,0,3.3-1.4,3.3-3.2c0.1-5.3,0.3-10.5,0.2-15.7c-3.1,0-6.2,0.1-9.3,0.2
			c0.1,5.1-0.2,10.2-0.3,15.3c-0.1,1.8,1.3,3.3,3.1,3.4C251.1,304.3,251.1,304.3,251.1,304.3z"/>
		<path class="st13" d="M237.5,289.2c11-1.2,21.6-1.2,32.6-1.5c1.7,0,3.2-1.1,3.8-2.6c0.3-0.9,0.7-1.7,1-2.6
			c-14,1.9-28.3,0.5-42.8,2.5c0.4,0.7,0.9,1.5,1.3,2.2C234.3,288.6,235.9,289.4,237.5,289.2z"/>
		<path class="st12" d="M249.3,329.1c2.3,0,4.7,0,7,0c0-1.9,0-4.1,0-5.9V321c0-1.5-1.2-2.7-2.7-2.7c0,0,0,0,0,0H252
			c-1.5,0-2.7,1.2-2.7,2.7v0C249.3,323.7,249.3,326.4,249.3,329.1z"/>
		<path class="st12" d="M282.1,336.2c-8.6-4.4-17.2-8.7-25.8-13.1c0,2,0,4,0,6l18.5,7.1c0,0.4,0,0.9,0,1.3h7.3L282.1,336.2z"/>
		<path class="st12" d="M223.5,336.3v1.3h7.3v-1.3c6.2-2.4,12.3-4.8,18.5-7.2c0-2,0-4,0-6C240.7,327.5,232.1,331.9,223.5,336.3z"/>
		<path class="st12" d="M249.3,337.5v1h7.6v-1h-1.7c0-4.8,0-9.6,0-14.5h-4.8c0.2,4.8,0.3,9.6,0.5,14.4L249.3,337.5z"/>
		<path class="st14" d="M250.4,323.1c0.2,4.8,0.3,9.6,0.5,14.4h1.9c0.5-4.8,1.1-9.6,1.6-14.5L250.4,323.1z"/>
		<path class="st14" d="M223.5,336.3L223.5,336.3c8.6-3.4,17.2-6.8,25.8-10.1v-3C240.7,327.5,232.1,331.9,223.5,336.3z"/>
		<path class="st11" d="M232.1,285c14.6-2,29.8-0.9,44.2-2.6c2.7-0.2,4.7-2.6,4.5-5.3c0-0.1,0-0.2,0-0.3l0,0c-0.3-2.7-2-4.6-5-4
			c-13.6,2.8-30.5,1.4-44.8,3.3c-3.1,0.4-4.3,2.6-3.9,5l0,0C227.4,283.5,228.9,285.4,232.1,285z"/>
		<path class="st15" d="M231,276.1c14.4-2,31.1-0.4,44.9-3.3c1.6-0.3,2.2,0.2,3.5,0.9c0,0-0.1,0-0.1,0c-15,1.8-30.1,1.3-44.9,3.4
			c-3.3,0.5-3.7,2.5-3.9,5.1c-0.1,1.2,0.9,2.1,1.5,2.9c-2.3,0-4.8-1.4-4.8-3.9S227.8,276.5,231,276.1z"/>
		<path class="st16" d="M222,334.8C221.9,334.6,221.9,334.6,222,334.8z"/>
		<path class="st16" d="M237.3,331.4c-4,4.1-7.4,6.4-13.4,6.1c-2.3-0.1-2.5-1.2-1.9-2.7c0.2-0.6,0.6-1.2,1.2-1.4
			c0.5-0.2,1.1-0.2,1.9-0.5c2.1-0.7,3.3-2.3,4.3-4.5c0.9-1.9,1.9-4.2,1.3-6.4c-0.2-0.7-0.4-1.4-0.6-2c-0.3-0.9-0.5-1.8-0.8-2.8
			c-0.2-0.5-0.3-1.1-0.5-1.6c1.6-0.7,3.1-1.4,4.7-2.1c0.5,0.7,1,1.4,1.5,2.1c0.7,1,1.4,2,2.1,3c0.8,1.1,1.5,2.4,2.1,3.7
			C240.5,325.7,240.9,327.9,237.3,331.4z"/>
		<path class="st16" d="M210.2,319.3l-0.6,3.4l-0.9,5.2c-0.4,4.3-3.9,7.1-8.2,7.6l-17.2,2.1c-1.1,0.2-2.2-0.6-2.3-1.8
			c0-0.1,0-0.2,0-0.2c0-0.3,0.1-0.6,0.2-0.9c0.2-0.3,0.4-0.6,0.6-0.9c0.9-1,2.1-1.7,3.4-2.1l10-4.1c2.1-0.9,3.9-2.3,5.2-4.2l2.3-6.9
			L210.2,319.3z"/>
		<path class="st17" d="M211.4,286.1c2.4,5.5,11.6,26.5,17.7,34.8c0.7,0.9,1.9,1.2,2.9,0.7l4-2.1c1-0.5,1.5-1.8,1.1-2.9
			c-2.5-6.4-10.4-27.9-9.5-44.7c0.1-1.3-0.9-2.3-2.1-2.4c-0.7,0-1.4,0.2-1.9,0.8l-11.8,13.4C211.1,284.4,211,285.3,211.4,286.1z"/>
		<path class="st18" d="M236.9,318.5c-0.2,0.4-0.6,0.8-1,1l-4,2.1l-0.2,0.1c-1,0.4-2.1,0.1-2.8-0.8c-6-8.3-15.3-29.3-17.7-34.8
			c-0.3-0.8-0.2-1.7,0.4-2.4l11.8-13.4c0.8-1,2.3-1.1,3.2-0.2c0.5,0.5,0.8,1.2,0.8,1.9c-0.9,16.8,7,38.3,9.5,44.7
			C237.3,317.3,237.2,317.9,236.9,318.5z"/>
		<path class="st16" d="M227.8,196.2c-0.2,0.1-0.3,0.2-0.5,0.3c-3.2,2.7-5.1,6.5-5.4,10.6c-2.5-1.6-4.9-3.4-7.2-5.4l-5.3-4.4
			l-7.4-6.1c-2.7-2.4-5.6-4.3-8.5-6.5c-2.7-2.1-5-4.7-6.9-7.5c-1.1-1.6-2.3-3-3.4-4.5c-0.4-0.5-1-1.2-0.4-1.7c1-0.7,2.4-0.6,3.3,0.2
			l2.9,2.9l3.1,2.3c0.2,0.1,0.4,0.1,0.5-0.1c0.1-0.1,0.1-0.2,0-0.4l-1.1-2.3c-0.3-0.6-0.3-1.2-0.1-1.8c0.2-0.5,0.7-0.7,1.1-0.5
			c0.2,0.1,0.3,0.2,0.4,0.3l5.2,8.6l19.7,12.4c1.6,1.1,3.4,1.9,5.2,2.4l3.9,1L227.8,196.2z"/>
		<path class="st19" d="M245.4,221c-8.4,0.8-16.7-2.6-22.2-8.9l-0.4-0.4c-0.3-0.4-0.5-0.9-0.6-1.4c-0.2-1-0.3-2.1-0.2-3.1
			c0.3-4.1,2.2-8,5.4-10.6c0.1-0.1,0.3-0.2,0.5-0.3c0.8-0.4,1.7-0.4,2.5,0c6.5,3.3,19.5,3.2,25,3c1.6-0.1,2.5-0.1,2.5-0.1
			S260.6,219.7,245.4,221z"/>
		<g class="st20">
			<rect x="87.2" y="135.1" class="st11" width="33.3" height="7.3"/>
			<rect x="87.2" y="135.1" class="st21" width="33.3" height="7.3"/>
			<rect x="87.2" y="127.8" class="st11" width="33.3" height="7.3"/>
			<rect x="87.2" y="120.4" class="st11" width="33.3" height="7.3"/>
			<rect x="87.2" y="120.4" class="st22" width="33.3" height="7.3"/>
		</g>
		<rect x="46" y="142.4" class="st23" width="106.5" height="4.8"/>
		<g class="st24">
			<path class="st25" d="M76.3,113.8v28.6h7.3v-28.6L76.3,113.8z M80,140.3c-0.8,0-1.5-0.7-1.5-1.5s0.7-1.5,1.5-1.5s1.5,0.7,1.5,1.5
				c0,0,0,0,0,0C81.5,139.6,80.8,140.3,80,140.3L80,140.3z"/>
			<path class="st25" d="M69,113.8v28.6h7.3v-28.6L69,113.8z M72.7,140.3c-0.8,0-1.5-0.7-1.5-1.5c0-0.8,0.7-1.5,1.5-1.5
				s1.5,0.7,1.5,1.5c0,0,0,0,0,0C74.2,139.6,73.5,140.3,72.7,140.3L72.7,140.3z"/>
			<g class="st26">
				<path class="st3" d="M76.3,113.8v28.6h7.3v-28.6L76.3,113.8z M80,140.3c-0.8,0-1.5-0.7-1.5-1.5s0.7-1.5,1.5-1.5s1.5,0.7,1.5,1.5
					c0,0,0,0,0,0C81.5,139.6,80.8,140.3,80,140.3L80,140.3z"/>
			</g>
			<path class="st25" d="M61.7,113.8v28.6H69v-28.6L61.7,113.8z M65.4,140.3c-0.8,0-1.5-0.7-1.5-1.5c0-0.8,0.7-1.5,1.5-1.5
				c0.8,0,1.5,0.7,1.5,1.5c0,0,0,0,0,0C66.9,139.6,66.2,140.3,65.4,140.3C65.4,140.3,65.4,140.3,65.4,140.3L65.4,140.3z"/>
			<g class="st27">
				<path class="st6" d="M61.7,113.8v28.6H69v-28.6L61.7,113.8z M65.4,140.3c-0.8,0-1.5-0.7-1.5-1.5c0-0.8,0.7-1.5,1.5-1.5
					c0.8,0,1.5,0.7,1.5,1.5c0,0,0,0,0,0C66.9,139.6,66.2,140.3,65.4,140.3C65.4,140.3,65.4,140.3,65.4,140.3L65.4,140.3z"/>
			</g>
			<path class="st25" d="M54.4,113.8v28.6h7.3v-28.6L54.4,113.8z M58.1,140.3c-0.8,0-1.5-0.7-1.5-1.5c0-0.8,0.7-1.5,1.5-1.5
				c0.8,0,1.5,0.7,1.5,1.5c0,0,0,0,0,0C59.6,139.6,58.9,140.3,58.1,140.3C58.1,140.3,58.1,140.3,58.1,140.3L58.1,140.3z"/>
			<g class="st28">
				<path class="st6" d="M54.4,113.8v28.6h7.3v-28.6L54.4,113.8z M58.1,140.3c-0.8,0-1.5-0.7-1.5-1.5c0-0.8,0.7-1.5,1.5-1.5
					c0.8,0,1.5,0.7,1.5,1.5c0,0,0,0,0,0C59.6,139.6,58.9,140.3,58.1,140.3C58.1,140.3,58.1,140.3,58.1,140.3L58.1,140.3z"/>
			</g>
		</g>
		<path class="st29" d="M245.4,221c-8.4,0.8-16.7-2.6-22.2-8.9c1.4,0.1,2.9,0.5,4.2,0.7c5.5,0.8,11-0.8,15.2-4.4
			c1.1-1,2.1-2.2,3.3-3.2c2.7-2.6,5.9-4.6,9.3-6c1.6-0.1,2.5-0.1,2.5-0.1S260.6,219.7,245.4,221z"/>
		<rect x="98.7" y="168.1" class="st6" width="16.6" height="5.1"/>
		<path class="st6" d="M108.1,166.7h4.5c1.5,0,2.7,1.2,2.7,2.7v2.4c0,1.5-1.2,2.7-2.7,2.7h-4.5c-1.5,0-2.7-1.2-2.7-2.7v-2.4
			C105.4,167.9,106.6,166.7,108.1,166.7z"/>
		<path class="st6" d="M92.3,233.6l-3.8-0.5c-1.8-0.2-3-1.8-2.8-3.6l6.2-61.2c0.2-1.8,1.8-3.1,3.6-2.9c0,0,0,0,0.1,0l3.8,0.5
			c1.8,0.2,3,1.8,2.8,3.6l-6.2,61.2C95.8,232.5,94.2,233.8,92.3,233.6C92.4,233.6,92.3,233.6,92.3,233.6z"/>
		<path class="st12" d="M97.6,170.9c0.1-1-0.6-1.8-1.6-1.9l0,0c-1-0.1-1.9,0.6-2,1.6c0,0,0,0,0,0l-5.8,57.6c-0.1,1,0.6,1.8,1.6,1.9
			l0,0c1,0.1,1.9-0.6,2-1.5c0,0,0,0,0-0.1"/>
		<path class="st6" d="M122.1,234.5H82.9c-0.8-0.1-1.4-0.9-1.3-1.7l0,0c-0.1-0.8,0.5-1.6,1.3-1.7h39.2c0.8,0.1,1.4,0.9,1.3,1.7l0,0
			C123.5,233.6,122.9,234.4,122.1,234.5z"/>
		<path class="st30" d="M164.1,212l-52.6,8.3c-2.4,0.7-4.8-0.7-5.5-3c0-0.1,0-0.2-0.1-0.3l-19.2-94.3c-0.4-2.4,1.1-4.7,3.5-5.1
			c0.4-0.1,0.9-0.1,1.3,0l51.7,2.1c1.9,0.1,3.5,1.5,3.9,3.4l20.1,84C167.7,209.2,166.3,211.4,164.1,212z"/>
		<path class="st31" d="M111.9,220.1l-0.5,0.1c-2.4,0.7-4.8-0.7-5.5-3c0-0.1,0-0.2-0.1-0.3l-19.2-94.3c-0.4-2.4,1.1-4.7,3.5-5.1
			c0.4-0.1,0.9-0.1,1.3,0l1.4,0.1c-2,0.7-3.2,2.8-2.8,4.9l13.9,68.2l5.3,26.1c0,0.2,0.1,0.3,0.1,0.5c0.4,1.1,1.2,2,2.2,2.5
			L111.9,220.1z"/>
		<path class="st31" d="M112.2,220.1l-0.2,0.1l-0.3-0.3C111.8,219.9,112,220,112.2,220.1z"/>
		<path class="st7" d="M161.5,207h-0.2l-45.6,7.7c-1.9,0.6-3.9-0.5-4.5-2.5c0-0.2-0.1-0.3-0.1-0.5l-5.5-27.5l-11.6-58.1
			c-0.5-2,0.7-4.1,2.8-4.6c0.3-0.1,0.7-0.1,1.1-0.1l44.7,1.4c1.6,0.2,3,1.4,3.3,3.1l18.2,76.5C164.4,204.3,163.4,206.3,161.5,207z"
			/>
		
			<linearGradient id="SVGID_1_" gradientUnits="userSpaceOnUse" x1="203.73" y1="293.6304" x2="104.82" y2="293.0504" gradientTransform="matrix(1 0 0 -1 0 451)">
			<stop  offset="4.000000e-02" style="stop-color:#F5F5F5;stop-opacity:0"/>
			<stop  offset="1" style="stop-color:#FFFFFF"/>
		</linearGradient>
		<path class="st32" d="M96.6,118.5l43.3-42.6c2-2,19.9,7.9,22.6,9.2C192,98.9,215.1,122,214,156.7c-0.7,24.2-6,53.2-22.4,72.1
			l-9.4,10.9l-64.8-21.1c-3.4-1.1-5.9-3.9-6.6-7.4L94,126.8C93.4,123.8,94.4,120.7,96.6,118.5z"/>
		<path class="st12" d="M141.2,121.3c-0.3,5.5-5.8,4.7-12.8,3.7c-5.1-0.8-5.8,3.2-5.9,5.5c0,0.5,0,1,0.1,1.6l-1.6-1.6l2.4,3.3
			l2.5,3.5l-0.4,1.2l-1.5,4.3c0,0-1.8,0.3-2.8-2.6s-3.1-1.8-5.8-7.1s-2.4-15.5,6-19.1c6.2-2.7,9.6-1,11.9,0.8
			c0.8,0.6,1.5,1.2,2.2,1.6C138.3,117.8,141.5,115.8,141.2,121.3z"/>
		<path class="st16" d="M138.7,157.2c-1.5,0.9-21.7,4.2-19.2-0.4c2.1-4.2,3.6-8.8,4.3-13.4l0.1-0.6v-0.1c0.1-0.9,0.2-1.8,0.1-2.7
			c0-0.4-0.1-0.8-0.2-1.3c0-0.1,0-0.2-0.1-0.3l0,0l-0.1-0.4l-0.1-0.3c-0.1-0.1-0.1-0.3-0.2-0.4l0,0v-0.1c0-0.1-0.1-0.2-0.1-0.3
			c-0.1-0.3-0.3-0.6-0.4-0.9c0,0,0-0.1-0.1-0.1c-0.2-0.4-0.5-0.8-0.8-1.2l2.1,1.6l0.3,0.2l5.3,4c0,0.7,0.1,1.4,0.2,2.1l0,0l0.1,0.2
			c0,0.2,0.1,0.4,0.1,0.5l0.1,0.2l0,0l0.1,0.2l0.2,0.4c0,0.1,0.1,0.1,0.1,0.2s0.1,0.2,0.1,0.3l0.1,0.2c0.1,0.3,0.3,0.6,0.4,1
			l0.1,0.2l0.3,0.6l0.1,0.2c0,0.1,0.1,0.2,0.1,0.3c0.6,1,1.2,2,1.6,2.6s0.9,1.2,0.9,1.2S138.8,157.1,138.7,157.2z"/>
		<path class="st12" d="M299,238.8c-2.8,4.6-8.6,5.1-13.4,4.3l0,0c-18.3-3.1-15.7-30.9-15.7-30.9l-7.9-21.7c0.5-0.4,1.1-0.8,1.7-1.2
			c1.3-0.9,2.4-2.3,4-2.7h0.2c0.3-0.1,0.7-0.1,1-0.3c0.9-0.3,1.7-1.1,2-2l0,0c0.1-0.3,0.1-0.7,0.1-1.1c0-0.8-0.5-1.6-1.2-2
			c-0.2-0.1-0.4-0.1-0.6-0.1h-0.4l0,0c0,0,0,0-0.1,0l-1,1.1c-0.2,0.3-0.6,0.3-0.9,0.1c-0.1-0.1-0.2-0.2-0.2-0.3l-0.5-2
			c-0.4-1.6-2-2.7-3.6-2.6c-3,0.3-7.5,1.1-10.8-0.7l-1.8-1.7l-0.3-0.3l-0.7-0.6c-3.9-6.8,3.7-11.8,3.7-11.8s8-5.4,16.2-2.4
			c5.5,2.1,9.3,7.3,9.6,13.2c0.3,3.7-0.2,7.5-1.5,11c0,0.1-0.1,0.2-0.1,0.3v0.1c-0.1,0.2-0.1,0.4-0.2,0.7l0,0
			c-1.1,4.4,2.2,7.7,6,9.6c0.6,0.3,1.3,0.6,2,0.9c1.3,0.4,2.6,0.9,3.8,1.5c2.8,1.6,3.5,4.8,3.2,7.8c-0.3,1.9-1,3.8-2.1,5.4v0.1
			c-0.2,0.4-0.5,0.9-0.7,1.3c-0.3,0.6-0.6,1.3-0.8,2c-0.1,0.2-0.1,0.4-0.2,0.7c-0.8,4.2,2.6,6.6,5.7,8.6c0.9,0.6,1.7,1.2,2.4,1.8
			l0,0l0.2,0.2C300.5,228.6,302.2,233.5,299,238.8z"/>
		<path class="st16" d="M268.3,208.1c-3.5-0.9-12.4-6.1-13.5-6.8l-0.1-0.1c0.9-1.2,1.8-2.5,2.5-3.9c0.2-0.4,0.4-0.8,0.6-1.3
			c0.9-1.7,1.4-3.6,1.5-5.5l5.6-4.2l0.9-0.7l0,0l1.2-0.9c-0.3,0.3-0.5,0.7-0.7,1.1l-0.1,0.2c0,0,0,0.1-0.1,0.1
			c-0.1,0.3-0.3,0.6-0.4,0.9s-0.2,0.6-0.3,0.9c0,0.1-0.1,0.1-0.1,0.2c0,0.1-0.1,0.3-0.1,0.4c-0.1,0.4-0.2,0.9-0.2,1.4
			c0,0.9,0,1.9,0.1,2.8c0,0.3,0.1,0.5,0.1,0.8c0.8,4.7,2.2,9.2,4.4,13.4C270.1,208.1,269.5,208.4,268.3,208.1z"/>
		<path class="st16" d="M270.9,184.4L270.9,184.4c-0.4,0.9-1.1,1.7-2,2c-0.3,0.1-0.7,0.2-1,0.3h-0.2c-0.8,0.2-1.6,0.7-2.2,1.2
			c-0.6,0.5-1.2,1.1-1.8,1.4s-1.1,0.8-1.7,1.2c-0.9,0.7-1.8,1.2-2.8,1.7c-0.5,0.2-1,0.4-1.5,0.5c-2,0.4-4.1-0.1-5.7-1.5
			c-1.9-1.6-3.5-3.5-4.7-5.8c-0.4-0.6-0.9-1.2-1.5-1.5c-0.3-0.1-0.6-0.3-0.9-0.5c-0.3-0.2-0.4-0.6-0.3-0.9c0-0.1,0.1-0.1,0.2-0.2
			c1.8-1.6,3.4-3.6,4.5-5.8c0.2-0.4,0.4-0.8,0.6-1.3c0.5,0.6,1.2,1.1,1.9,1.5c3.3,1.7,7.7,0.9,10.8,0.7c1.7-0.2,3.2,0.9,3.6,2.6
			l0.5,2v0.1c0.1,0.3,0.4,0.5,0.7,0.4c0.1,0,0.2-0.1,0.3-0.2l1-1.1c0,0,0,0,0.1,0s0,0,0,0h0.4c0.2,0,0.4,0.1,0.6,0.1
			c0.7,0.4,1.2,1.2,1.2,2C271,183.7,271,184,270.9,184.4z"/>
		<path class="st16" d="M268.7,181.2l-1,1.1c-0.2,0.3-0.6,0.3-0.9,0.1c-0.1-0.1-0.2-0.2-0.2-0.3V182l-0.5-2c-0.4-1.6-2-2.7-3.7-2.5
			c-3,0.3-7.5,1.1-10.8-0.7c-0.7-0.4-1.3-0.9-1.9-1.5c0-0.1,0.1-0.2,0.1-0.2l0.2-0.4l0,0c0.7-1.5,1-3.7,1.9-5.3s2.4-2.5,5.5-0.9
			c1.5,0.9,2.9,1.9,4.1,3.2c0.6,0.6,1.3,1.2,1.9,1.9c1.9,1.9,3.4,4.2,4.6,6.6c0.1,0.3,0.3,0.7,0.4,1
			C268.6,181.2,268.6,181.2,268.7,181.2z"/>
		<path class="st12" d="M269.8,179.9l-1.1,1.3l-1,1.1c-0.2,0.3-0.6,0.3-0.9,0.1c-0.1-0.1-0.2-0.2-0.2-0.3V182l-0.5-2
			c-0.4-1.6-2-2.7-3.7-2.5c-3,0.3-7.5,1.1-10.8-0.7c-0.7-0.4-1.3-0.9-1.9-1.5c-0.3-0.4-0.6-0.7-0.8-1.1c-3.9-6.8,3.7-11.8,3.7-11.8
			c4.1,0,9,5.6,12.5,10.4C266.8,175.1,268.4,177.5,269.8,179.9z"/>
		<path class="st17" d="M270.2,270.3c-12,7.5-29.5,5-42.6,8c-3.8,0.9-6.3,7.4-8.1,13.3c-0.9,3.1-1.7,6-2.4,7.9
			c-2.1,5.8-4.2,15.1-6,22.6c-0.5,2-2.4,3.3-4.4,3c-0.2,0-0.4-0.1-0.6-0.1c-1.2-0.4-2.5-0.8-3.6-1.2l-0.4-0.1
			c-1.4-0.7-2.3-2.2-2.3-3.8c0.7-12.1,3.6-30.9,7.9-44c1.1-3.6,2.5-7,4.4-10.2c7.1-11.7,16.5-11,28-12.8c10.4-1.6,22.5-5,33.8-7.5
			c2-0.5,4,0.7,4.6,2.7c0.7,2.1,1.1,4.2,1.3,6.4C280.5,260.2,278.1,265.3,270.2,270.3z"/>
		<path class="st13" d="M280,254.3c-2.1,4.3-5.1,7.7-10,9.1c-5.9,1.8-12.2,0.6-18.1-1s-11.8-3.7-17.9-3.9s-12.8,2-16,7.2
			c-1,1.6-1.6,3.4-2.7,4.9c-1.8,2.5-4.4,4.3-7.3,5.1c1.1-3.6,2.5-7,4.4-10.2c5.8-9.6,13.1-10.9,21.9-12c0.1,0.5,0.1,1,0.3,1.4
			c0.1,0.6,0.7,1,1.2,0.9c2.6-0.3,9.7-0.6,18.9,3.6c9.6,4.4,20.8-0.7,25.1-8C279.9,252.4,280,253.4,280,254.3z"/>
		<path class="st19" d="M281.9,242.1c-0.1,1.6-0.3,3.3-0.6,4.9c-0.2,1.6-0.8,3.2-1.6,4.6c-3.7,6.4-12.8,11.1-21.5,9.2
			c-1.2-0.3-2.4-0.7-3.6-1.2c-1.9-0.9-3.9-1.6-5.9-2.2c-2.3-0.7-4.6-1.1-7-1.4h-0.1c-0.5,0-1.1-0.1-1.5-0.1h-0.5
			c-1.3,0-2.5,0-3.8,0.1c-0.6,0.1-1.1-0.3-1.2-0.9c-0.1-0.5-0.2-1-0.3-1.4c0,0,0-0.1,0-0.1c-1.1-7.9,1.2-16,3.9-23.3
			c3-7.6,6.7-14.9,11.1-21.8c1.1-1.8,2.3-3.5,3.6-5.1c1-1.3,2.1-2.6,3.2-4c-0.8,1.4-0.7,2.9,1,3.3c2.4,0.5,4.9-0.3,6.7-2
			c0.7-0.7,1.3-2.3,2.3-2.8c0.3-0.1,0.6-0.2,0.9-0.1c0.5,0.1,1,0.3,1.4,0.6c0.2,0.1,0.4,0.3,0.6,0.4c1.2,1.2,2.2,2.5,3,3.9
			c1.7,2.4,3.3,4.9,4.7,7.5c1.4,2.6,2.5,5.2,3.3,8c0.1,0.9,0.3,1.8,0.7,2.6C282.3,227.6,282.7,234.9,281.9,242.1z"/>
		<path class="st19" d="M280.6,220.5c-0.4-0.8-0.6-1.7-0.7-2.6C280.1,218.8,280.4,219.7,280.6,220.5z"/>
		<path class="st16" d="M244.4,248.5l-10.4,5.1c-0.6,0.3-1.2,0.5-1.8,0.7l-14,4.6l-14.1,4.6c-0.3,0.1-0.5,0.2-0.7,0.4l-2.4,2
			c-1.3,1.1-2.1,2.5-2.3,4.2l-0.4,3.2c-0.2,1.4-1.4,2.4-2.8,2.4c-0.5,0-1-0.4-1.1-0.9l-0.7-5.3c-0.2-1.2,0.2-2.4,0.9-3.4l3.9-5.4
			c0.3-0.4,0.7-0.8,1.2-1.1l21-11.3c0.7-0.4,1.4-0.9,2-1.4l9.5-8.4l1.9-1.7l1.9-1.7l1.1,1.7L244.4,248.5z"/>
		<path class="st16" d="M141.5,136.5c-0.3,0.1-0.6,0.2-0.9,0.3c-0.6,0.2-1.2,0.5-1.6,1c-1.4,1.7-3.1,3.1-5,4.1
			c-1.3,0.7-2.7,0.9-4.1,0.7c-0.3-0.1-0.7-0.2-1-0.4c-1.4-0.7-2.6-1.8-3.6-3c-0.3-0.3-0.6-0.6-0.9-0.9c-0.1-0.1-0.3-0.3-0.4-0.4
			c0,0,0-0.1,0-0.1v0.1l-0.3-0.4c-0.6-0.9-1.3-1.6-2.3-2.2l-0.2-0.1c-0.3-0.1-0.6-0.2-0.8-0.4c-0.7-0.4-1.3-1.2-1.4-2l0,0
			c0-0.3,0-0.6,0.1-0.9c0.2-0.7,0.7-1.3,1.4-1.5c0.2,0,0.4,0,0.5,0l0,0l0.3,0.1l0,0c0,0,0,0.1,0.2,0c0.5-0.9,0.6-2.7,1.1-4.2l0,0
			c0.2-0.6,0.5-1.1,1-1.6c2.7-2.4,7.5-2.7,9.5-3.3c4.1-1.2,4.7,1.4,4.9,4c0.1,0.5,0.1,1,0.1,1.5c0,0.4,0.1,0.7,0.2,1.1
			c0.6,2.7,1.7,5.3,3.4,7.5c0.2,0.3,0.1,0.6-0.2,0.8C141.6,136.5,141.5,136.5,141.5,136.5z"/>
		<path class="st16" d="M124,137.8c0,0,0,0.1,0,0.1l0,0V137.8z"/>
		<path class="st12" d="M141.2,121.3c0.1,1.4-0.6,2.8-1.8,3.6c-2.2,1.4-6.3,0.8-11,0.1c-5.1-0.8-5.8,3.2-5.9,5.5c0,0.2,0,0.4,0,0.6
			c-0.2,0.1-0.4,0.2-0.7,0.2l-0.8-0.8l0.2-7l0.3-9.5c6.2-2.7,9.6-1,11.9,0.8c0.8,0.6,1.5,1.2,2.2,1.6
			C138.3,117.8,141.5,115.8,141.2,121.3z"/>
		<path class="st12" d="M122.6,132l-0.8-0.8c0.2,0,0.5-0.1,0.7-0.2C122.5,131.4,122.6,131.7,122.6,132z"/>
		<path class="st3" d="M161.3,207l-45.6,7.7c-1.9,0.6-3.9-0.5-4.5-2.5c0-0.2-0.1-0.3-0.1-0.5l-5.5-27.5c2.8-8.7,6.3-17.2,10.5-25.3
			c1.9-3.6,3.2-5.9,3.2-5.9s8,2.2,14.3,3.9c0.6,0.2,1.1,0.2,1.7,0.2c1.2,0,2-0.3,3.2,0.2c1.3,0.7,2.5,1.7,3.5,2.8
			c1.3,1.3,2.4,2.7,3.4,4.2c0.7,1,1.3,2.1,2,3.2l0,0c0.6,1.1,1.3,2.3,1.9,3.5c1.7,3.4,3.2,6.9,4.5,10.4c0.3,0.8,0.6,1.6,0.9,2.3
			c1.5,4.1,2.8,8.3,3.9,12.2c0.3,1,0.6,2,0.8,3C160.1,202,160.8,204.7,161.3,207z"/>
		<path class="st33" d="M171.3,108.2c0,2.2-1.1,4.3-3,5.6l-6.7,4.3c0.5-0.3,3.7,1,4.4,1.2c7.3,1.8,14.7,1.5,22.1,1.5h12
			c5.9,0,10.6-4.8,10.6-10.6v-1.8c0-5.9-4.7-10.6-10.6-10.6H182C176.1,97.5,171.3,102.3,171.3,108.2
			C171.3,108.1,171.3,108.2,171.3,108.2z"/>
		<path class="st34" d="M149.3,171.1c-0.1,0.1-0.3,0.1-0.4,0l-6-6.6l-4.4-7.1c1.3,0.7,2.5,1.7,3.5,2.8c1.3,1.3,2.4,2.7,3.4,4.2
			l2,3.2l0,0C148.1,168.7,148.7,169.9,149.3,171.1z"/>
		<path class="st34" d="M143.6,171.7L131,160.3c0,0-0.1,0,0,0l2.4,4.7c0.2,0.4,0,1-0.4,1.2c-0.2,0.1-0.5,0.1-0.8,0l-3.5-1.6
			l-9.7-4.4c-1-0.4-1.9-0.8-2.9-1.2c1.9-3.6,3.2-5.9,3.2-5.9s8,2.2,14.3,3.9c0.6,0.2,1.1,0.2,1.7,0.2c3.4,1.8,5.6,3.1,6.5,4.1
			c0.4,0.5,0.7,1.1,0.9,1.8l1.6,8.3c0.1,0.2,0,0.4-0.2,0.5C143.9,171.9,143.7,171.9,143.6,171.7z"/>
		<path class="st3" d="M119.3,151.8c-0.5,1.2-1,2.4-1.4,3.7c-0.3,0.9-0.7,1,0,1.4c0.9,0.5,1.8,0.9,2.8,1.3l8.6,3.9l3.1,1.4
			c0.4,0.2,0.8,0,1-0.4c0.1-0.2,0.1-0.5,0-0.7l-2.1-4.2l0,0l11.2,10.2c0.1,0.1,0.3,0.2,0.4,0.1c0.1-0.1,0.1-0.2,0.1-0.3l-1.4-7.4
			c-0.1-0.6-0.4-1.1-0.8-1.6c-1.5-1.7-7.3-4.6-17.7-9.5C121.5,148.9,120.2,150.1,119.3,151.8z"/>
		<path class="st3" d="M141.3,161.7l-7.1-10.8c-0.1-0.1,0-0.3,0.1-0.4c0.1,0,0.2,0,0.2,0l3.8,2.3c0.2,0.2,0.4,0.3,0.6,0.6l5.5,7.8
			c0,0,0,0.1,0,0.2s-0.1,0-0.2,0l0,0l-1.1-0.8l5.9,9.4c0,0.1-0.1,0.2-0.1,0.1L141.3,161.7z"/>
		<path class="st34" d="M158.5,196.1c-0.2,0.6-0.5,1.2-0.8,1.7c-1.2,2-3.7,3.2-5.5,4.8c-1,1.1-2.2,2-3.5,2.7
			c-1.8,0.7-3.7,0.9-5.6,0.6c-7.1-0.8-13.6-4.5-18-10.2c-4.3-5.7-6.7-12.6-6.9-19.8c-0.1-1.2,0-2.5,0.3-3.7
			c1.5-4.9,7.3-6.1,11.7-6.3c4.4-0.3,8,3.9,10,7.4s3.1,7.9,6.7,9.7c2.1,1.1,4.7-1.1,7.1-1.4c0.3,0.8,0.6,1.6,0.9,2.3
			C156.1,188,157.4,192.2,158.5,196.1z"/>
		<path class="st16" d="M181.4,173.3c-0.1,0.5-2.1,7.7-13.9,10.7c-0.1,0-0.2,0.1-0.2,0.1l-9.8,7.9l-2.1-0.6c-1.5-0.4-2.4-2-2-3.5
			c0.2-0.8,0.8-1.5,1.5-1.8c3.1-1.5,5.4-3,6.2-4.1c2.3-2.9,4.7-6.4,7.5-8c0.2-0.1,0.4-0.2,0.6-0.3c0.3-0.1,0.6-0.3,0.9-0.4
			c0.3-0.1,0.5-0.1,0.8-0.2c2.4-0.4,0.2,2.1-1.8,3.8c-0.3,0.3-0.4,0.7-0.2,1c0.2,0.3,0.5,0.5,0.9,0.5h0.1c1-0.1,1.9-0.3,2.9-0.6
			l0.7-0.2c2-0.5,3.8-1.6,5.1-3.2c0.5-0.7,1.3-1.2,2.2-1.3C181.2,173.1,181.4,173.1,181.4,173.3z"/>
		<path class="st3" d="M131.6,165.4c-3.6-3.5-9.3-3.4-12.8,0.2c-1.7,1.7-2.6,4-2.5,6.4c0,4,1,8,3,11.6c4.6,8.3,15.4,15.3,21.3,18.7
			c2.4,1.4,5.4,1,7.4-0.9l15.8-12.4c1.5-1.2,1.8-3.4,0.6-4.9c0,0,0,0,0,0l-2.5-3.2c-0.3-0.5-1-0.7-1.6-0.3l-13,7.9
			c-1.3,0.7-2.9,0.3-3.6-1c-0.1-0.2-0.2-0.4-0.2-0.6C141.8,181.6,138.3,171.8,131.6,165.4z"/>
		<path class="st35" d="M133.5,114.7c-0.9,1.3-2,2.4-3.3,3.3c-1.1,0.7-2.3,1.3-3.3,2c-2.1,1.5-3.6,3.7-4.3,6.2l0,0
			c-0.5,1.5-0.6,3.3-1.1,4.2c-0.2,0.1-0.2,0-0.2,0s0,0,0,0l-0.3-0.1l0,0c-0.2,0-0.4,0-0.5,0c-0.7,0.2-1.2,0.8-1.4,1.5
			c-0.1,0.3-0.1,0.6-0.1,0.9l0,0c0.2,0.8,0.7,1.6,1.4,2c0.3,0.2,0.5,0.3,0.8,0.4l0.2,0.1c0.8,0.4,1.5,1,2,1.8
			c0.1,0.3,0.2,0.5,0.3,0.8s0.1,0.3,0.1,0.4c0.3,1.4,0.3,2.8,0.1,4.2v0.1c-0.4,0-1.8-0.2-2.7-2.6c-1-2.9-3.1-1.8-5.8-7.1
			s-2.4-15.5,6-19.1C127.8,111.2,131.1,112.9,133.5,114.7z"/>
		<path class="st19" d="M269,221.8c0,0.2,0,0.4-0.1,0.7c-1.6,5.9-5.2,11-10.1,14.5c-7.9,5.5-13.4,10.5-14.4,12.6
			c-0.9,1.8-2.9,1.7-3.5,0.7c-0.1-0.2-0.2-0.4-0.2-0.7c0-1.6-1.1-2.6-2.9-4.7c-0.4-0.5-1-1-1.6-1.7c-1.5-1.4-2.9-3-4-4.7
			c-0.7-1-1-2.3-0.7-3.5c0,0,18.4-22.8,28.3-22C269.8,213.7,269,220.5,269,221.8z"/>
		<path class="st36" d="M209.2,324.6l-0.6,3.2c-0.4,4.3-3.9,7.1-8.2,7.6l-17.2,2.1c-1.1,0.2-2.2-0.6-2.3-1.8c0-0.1,0-0.2,0-0.2
			c0-0.3,0.1-0.6,0.2-0.9c0.2-0.3,0.4-0.6,0.6-0.9c1.2-0.1,2.3,0,3.5,0.2c4.5,0.8,9.1,0.5,13.5-0.8c1.5-0.4,3-1.3,4.1-2.4
			c1.1-1.2,1.6-2.8,1.2-4.4c-0.4-1-1-1.9-1.7-2.7l0.4,0.1c1.1,0.4,2.4,0.8,3.6,1.2c0.2,0.1,0.4,0.1,0.6,0.1
			C207.7,325.2,208.5,325.1,209.2,324.6z"/>
		<rect x="53" y="237.6" class="st3" width="100.4" height="100.9"/>
		<polygon class="st23" points="174.6,234.1 174.6,338.5 153.4,338.5 153.4,237.6 53,237.6 53,234.1 		"/>
		<path class="st6" d="M133.8,229.2l28.6,3.6c0.3,0,0.6,0.3,0.6,0.7l0,0c0,0.4-0.3,0.7-0.7,0.7h-28.6c-0.4,0-0.7-0.3-0.7-0.7
			c0,0,0,0,0,0v-3.6C133,229.5,133.3,229.2,133.8,229.2C133.7,229.2,133.8,229.2,133.8,229.2z"/>
		<g class="st37">
			
				<rect x="332.9" y="252.3" transform="matrix(1 -1.570794e-03 1.570794e-03 1 -0.3984 0.5648)" class="st1" width="52.9" height="3.2"/>
			
				<rect x="332.9" y="255.5" transform="matrix(1 -1.570794e-03 1.570794e-03 1 -0.4161 0.5648)" class="st3" width="52.9" height="19.3"/>
			
				<rect x="336.8" y="258.6" transform="matrix(1 -1.570794e-03 1.570794e-03 1 -0.4161 0.5648)" class="st1" width="45.2" height="13.1"/>
			
				<rect x="351.4" y="262" transform="matrix(1 -1.570794e-03 1.570794e-03 1 -0.4138 0.5648)" class="st3" width="15.8" height="3.4"/>
		</g>
		<g class="st37">
			
				<rect x="332.9" y="273.9" transform="matrix(1 -1.570794e-03 1.570794e-03 1 -0.4324 0.5648)" class="st1" width="52.9" height="3.2"/>
			
				<rect x="332.9" y="277.1" transform="matrix(1 -1.570794e-03 1.570794e-03 1 -0.45 0.5649)" class="st3" width="52.9" height="19.3"/>
			
				<rect x="336.8" y="280.3" transform="matrix(1 -1.570794e-03 1.570794e-03 1 -0.45 0.5649)" class="st1" width="45.2" height="13.1"/>
			
				<rect x="351.5" y="283.6" transform="matrix(1 -1.570794e-03 1.570794e-03 1 -0.4477 0.5649)" class="st3" width="15.8" height="3.4"/>
		</g>
		<g class="st37">
			
				<rect x="333" y="295.5" transform="matrix(1 -1.570794e-03 1.570794e-03 1 -0.4663 0.5649)" class="st1" width="52.9" height="3.2"/>
			
				<rect x="333" y="298.7" transform="matrix(1 -1.570794e-03 1.570794e-03 1 -0.484 0.565)" class="st3" width="52.9" height="19.3"/>
			
				<rect x="336.8" y="301.9" transform="matrix(1 -1.570794e-03 1.570794e-03 1 -0.484 0.565)" class="st1" width="45.2" height="13.1"/>
			
				<rect x="351.5" y="305.2" transform="matrix(1 -1.570794e-03 1.570794e-03 1 -0.4816 0.565)" class="st3" width="15.8" height="3.4"/>
		</g>
		
			<rect x="333" y="317.1" transform="matrix(1 -1.570794e-03 1.570794e-03 1 -0.5002 0.565)" class="st7" width="52.9" height="3.2"/>
		
			<rect x="333" y="320.4" transform="matrix(1 -1.570794e-03 1.570794e-03 1 -0.5179 0.5651)" class="st7" width="52.9" height="19.3"/>
		
			<rect x="336.9" y="323.5" transform="matrix(1 -1.570794e-03 1.570794e-03 1 -0.5179 0.565)" class="st7" width="45.2" height="13.1"/>
		
			<rect x="351.5" y="326.8" transform="matrix(1 -1.570794e-03 1.570794e-03 1 -0.5156 0.565)" class="st7" width="15.8" height="3.4"/>
		<g class="st37">
			
				<rect x="333" y="316.9" transform="matrix(1 -1.570794e-03 1.570794e-03 1 -0.4998 0.565)" class="st1" width="52.9" height="3.2"/>
			
				<rect x="333" y="320.1" transform="matrix(1 -1.570794e-03 1.570794e-03 1 -0.5175 0.5651)" class="st3" width="52.9" height="19.3"/>
			
				<rect x="336.9" y="323.2" transform="matrix(1 -1.570794e-03 1.570794e-03 1 -0.5175 0.565)" class="st1" width="45.2" height="13.1"/>
			
				<rect x="351.5" y="326.6" transform="matrix(1 -1.570794e-03 1.570794e-03 1 -0.5152 0.565)" class="st3" width="15.8" height="3.4"/>
		</g>
		<path class="st1" d="M359.4,192.1c-0.7,0-1.4,0.2-2.1,0.5c-0.5,0.3-1,0.8-1.2,1.4c-1.6,2.9-0.4,6.4,1.1,9.3
			c1.6,3.2,3.7,6.1,5.3,9.3c1.8,3.1,2.7,6.6,2.8,10.2c1.6-2.5,2.9-5.2,4-8c1.6-4.9,1.5-10.2-0.5-14.9
			C367.2,195.9,363.7,192.1,359.4,192.1z"/>
		<path class="st1" d="M349.6,213.6c-1.2-0.3-2.4-0.4-3.7-0.2c-2,0.2-3.7,1.5-4.5,3.3c-1,2.6,0.7,5.5,3.1,6.9
			c2.9,1.7,6.5,1.6,9.7,2.2c2.4,0.3,4.5,1.4,6.2,3.1c0.2-4,0-8.1-3-11.1c-1.6-1.5-3.5-2.7-5.6-3.4C351,214,350.3,213.7,349.6,213.6z
			"/>
		<path class="st1" d="M379.3,213.5c-0.9-1.1-2.3-1.8-3.8-1.6c-1.8,0.2-3,1.8-3.8,3.5c-0.6,1.4-1,3-1.1,4.6
			c-0.2,3.6,1.1,7.4-0.8,10.5c6.8-1.1,11.4-7.5,10.3-14.2c0-0.2-0.1-0.4-0.1-0.6C380,214.8,379.7,214.1,379.3,213.5z"/>
		<path class="st2" d="M361.7,199.6c2.7,6.3,3.1,13,3.3,19.8c0,0.5,0,0.9,0,1.4c0.1,3.9,0.5,7.7,0.4,11.6c0,1.8-0.2,3.6-0.4,5.4h1.5
			c0.3-1,0.7-1.9,1.2-2.8c0.9-1.7,2.1-3.4,3.4-4.8l1.2-1.4c2.9-3.4,4.8-7.5,5.5-11.8c0-0.2-0.3-0.3-0.3-0.1
			c-1.2,5.1-3.9,9.3-7.3,13.2l0,0c-1.5,1.7-2.7,3.6-3.7,5.6c-0.1,0.1-0.1,0.3-0.2,0.4c0.1-1.7,0.2-3.4,0.2-5.1
			c-0.1-3.1-0.3-6.2-0.5-9.3c0-0.7-0.1-1.4-0.1-2.1c-0.3-6.9-0.9-13.8-3.8-20.2C362,199.2,361.6,199.4,361.7,199.6z"/>
		<path class="st2" d="M346.3,218.6c5,2.4,10.3,4.4,13.3,9.4l0.1,0.1c1.8,3,3.2,6.3,4,9.7h1.1c-0.9-3.5-2.4-6.9-4.4-10
			c-0.1-0.2-0.3-0.4-0.4-0.6c-3.3-4.9-8.4-6.7-13.6-8.9C346.2,218.1,346,218.5,346.3,218.6z"/>
		<path class="st3" d="M373.8,238.2v0.2l-0.1,0.7l-0.2,1.8l-0.2,1.1l-0.4,2.4l-0.1,0.6l-0.3,2.3l-0.2,1.2L372,251l-0.1,0.5
			c0,0.2-0.2,0.4-0.4,0.4h-10.4c-0.2,0-0.4-0.2-0.4-0.4l-0.2-1.5l0,0v-0.3l-0.1-1l-0.1-0.7V248l-0.5-4.3l0,0v-0.3l-0.1-1.2l-0.1-0.5
			v-0.2l-0.2-1.5l-0.1-0.5l-0.1-1.2c0-0.2,0.1-0.4,0.3-0.5c0,0,0,0,0.1,0h13.9C373.7,237.8,373.8,238,373.8,238.2z"/>
		<polygon class="st4" points="359.3,239.9 359.3,239.9 359.2,239.4 359.2,239.4 		"/>
		<polygon class="st4" points="359.7,243.6 359.7,243.4 359.7,243.4 		"/>
		<polygon class="st4" points="359.5,242.1 359.5,242.1 359.5,241.6 		"/>
		<path class="st1" d="M373.8,238.2v0.2l-0.1,0.7l-0.2,1.8l-0.2,1.1l-0.4,2.4l-0.1,0.6l-0.3,2.3l-0.2,1.2L372,251l-0.1,0.5
			c0,0.2-0.2,0.4-0.4,0.4h-10.4c-0.2,0-0.4-0.2-0.4-0.4l-0.2-1.5l0,0v-0.3l-0.1-1l-0.1-0.7c1.3-1.3,2.8-2.1,4.6-2.6
			c6.4-1.8,6.3-5.6,5.9-7.8h2.7C373.7,237.8,373.8,238,373.8,238.2z"/>
		<path class="st25" d="M107.9,150.1l2.7-0.9c0.2-0.1,0.3-0.2,0.3-0.4l-3.5,1.2C107.5,150.1,107.7,150.2,107.9,150.1z"/>
		<path class="st3" d="M101.9,138.2l4.2,9.8c0.1,0.2,0.3,0.3,0.6,0.2l3.8-1.3c0.2-0.1,0.3-0.3,0.3-0.5l-2.5-10.3L101.9,138.2z"/>
		<path class="st3" d="M105.4,137l2.5,10.3c0.1,0.2-0.1,0.5-0.3,0.6l2.8-0.9c0.2-0.1,0.3-0.3,0.3-0.5l-2.5-10.3L105.4,137z"/>
		<polygon class="st38" points="106.7,136.6 109.8,147.1 107.4,147.9 103.5,137.7 		"/>
		
			<rect x="101.2" y="136.1" transform="matrix(0.9482 -0.3178 0.3178 0.9482 -37.9816 40.4271)" class="st2" width="7.5" height="1.1"/>
		
			<rect x="102" y="136.7" transform="matrix(0.9482 -0.3178 0.3178 0.9482 -38.2903 39.8331)" class="st25" width="1.8" height="1.1"/>
		<path class="st2" d="M110.9,148.8C110.9,148.7,110.9,148.7,110.9,148.8l-0.6-1.8l-3.5,1.2l0.6,1.8l0,0L110.9,148.8z"/>
		<polygon class="st19" points="106.7,138.1 105.9,138.4 105.6,137.6 105.1,137.8 105.4,138.6 104.6,138.8 104.8,139.4 105.6,139.1 
			105.8,139.9 106.4,139.7 106.1,138.9 106.8,138.7 		"/>
		<g class="st39">
			<path class="st3" d="M107.9,150.1l2.7-0.9c0.2-0.1,0.3-0.2,0.3-0.4l-3.5,1.2C107.5,150.1,107.7,150.2,107.9,150.1z"/>
			<path class="st3" d="M101.9,138.2l4.2,9.8c0.1,0.2,0.3,0.3,0.6,0.2l3.8-1.3c0.2-0.1,0.3-0.3,0.3-0.5l-2.5-10.3L101.9,138.2z"/>
			<path class="st3" d="M105.4,137l2.5,10.3c0.1,0.2-0.1,0.5-0.3,0.6l2.8-0.9c0.2-0.1,0.3-0.3,0.3-0.5l-2.5-10.3L105.4,137z"/>
			<polygon class="st3" points="106.7,136.6 109.8,147.1 107.4,147.9 103.5,137.7 			"/>
			
				<rect x="101.2" y="136.1" transform="matrix(0.9482 -0.3178 0.3178 0.9482 -37.9816 40.4271)" class="st3" width="7.5" height="1.1"/>
			
				<rect x="102" y="136.7" transform="matrix(0.9482 -0.3178 0.3178 0.9482 -38.2903 39.8331)" class="st3" width="1.8" height="1.1"/>
			<path class="st3" d="M110.9,148.8C110.9,148.7,110.9,148.7,110.9,148.8l-0.6-1.8l-3.5,1.2l0.6,1.8l0,0L110.9,148.8z"/>
			<polygon class="st3" points="106.7,138.1 105.9,138.4 105.6,137.6 105.1,137.8 105.4,138.6 104.6,138.8 104.8,139.4 105.6,139.1 
				105.8,139.9 106.4,139.7 106.1,138.9 106.8,138.7 			"/>
		</g>
		<path class="st40" d="M157.5,141l-4.4-0.9l-0.7,0.8c-0.7,0.8-1.2,1.8-1.4,2.8l-1.6,8c-0.1,0.7,0.3,1.3,1,1.4c0,0,0,0,0,0l4.6,0.9
			c0.7,0.1,1.3-0.3,1.4-1c0,0,0,0,0,0l1.6-8c0.2-1,0.1-2.1-0.2-3.1L157.5,141z"/>
		<path class="st11" d="M157.5,141l-4.4-0.9l-0.7,0.8c-0.7,0.8-1.2,1.8-1.4,2.8l-1.6,8c-0.1,0.7,0.3,1.3,1,1.4c0,0,0,0,0,0l4.6,0.9
			c0.7,0.1,1.3-0.3,1.4-1c0,0,0,0,0,0l1.6-8c0.2-1,0.1-2.1-0.2-3.1L157.5,141z"/>
		<path class="st41" d="M157.6,147.4c-0.4,1.9-0.8,3.8-1.2,5.7c-0.1,0.7-0.7,1.1-1.4,1c0,0,0,0,0,0l-1.6-0.3c0.7,0.1,1.3-0.3,1.4-1
			c0,0,0,0,0,0l1.6-8c0.2-1,0.1-2.1-0.2-3.1l-0.3-1l1.6,0.3l0.3,1C158.5,143.8,158,145.6,157.6,147.4z"/>
		<path class="st42" d="M158,140.3l-0.1,0.3c-0.1,0.4-0.4,0.6-0.7,0.6c-0.1,0-0.1,0-0.2,0l-3.7-0.7c-0.3-0.1-0.5-0.4-0.5-0.7
			c0,0,0,0,0,0l0.1-0.5c0-0.1,0.1-0.2,0.1-0.3c0.2-0.3,0.6-0.5,1-0.4l3.1,0.6h0.1C157.8,139.2,158.1,139.7,158,140.3z"/>
		<path class="st43" d="M157.3,140.7l-0.1,0.3c0,0.1,0,0.1-0.1,0.2c-0.1,0-0.1,0-0.2,0l-3.7-0.7c-0.3-0.1-0.5-0.4-0.5-0.7
			c0,0,0,0,0,0l0.1-0.5c0-0.1,0.1-0.2,0.1-0.3c0.1,0,0.2,0,0.4,0l3.1,0.6h0.1C157.1,139.7,157.5,140.2,157.3,140.7z"/>
		
			<rect x="149.5" y="145.1" transform="matrix(0.1963 -0.9805 0.9805 0.1963 -21.8846 268.9008)" class="st43" width="7.1" height="5.5"/>
		<path class="st7" d="M155.4,146.3l-2.9-0.6c-0.2,0-0.4-0.2-0.3-0.5c0,0,0,0,0,0l0,0c0-0.2,0.3-0.4,0.5-0.3l3,0.6
			c0.2,0,0.4,0.3,0.3,0.5c0,0,0,0,0,0l0,0C155.9,146.2,155.7,146.4,155.4,146.3C155.4,146.3,155.4,146.3,155.4,146.3z"/>
		<path class="st7" d="M155.2,147.4l-3-0.6c-0.2-0.1-0.3-0.3-0.3-0.5l0,0c0-0.2,0.2-0.4,0.5-0.3c0,0,0,0,0,0l3,0.6
			c0.2,0,0.4,0.2,0.3,0.5c0,0,0,0,0,0l0,0C155.6,147.3,155.4,147.5,155.2,147.4C155.2,147.4,155.2,147.4,155.2,147.4z"/>
		<g class="st44">
			<path class="st3" d="M157.5,141l-4.4-0.9l-0.7,0.8c-0.7,0.8-1.2,1.8-1.4,2.8l-1.6,8c-0.1,0.7,0.3,1.3,1,1.4c0,0,0,0,0,0l4.6,0.9
				c0.7,0.1,1.3-0.3,1.4-1c0,0,0,0,0,0l1.6-8c0.2-1,0.1-2.1-0.2-3.1L157.5,141z"/>
			<path class="st3" d="M157.5,141l-4.4-0.9l-0.7,0.8c-0.7,0.8-1.2,1.8-1.4,2.8l-1.6,8c-0.1,0.7,0.3,1.3,1,1.4c0,0,0,0,0,0l4.6,0.9
				c0.7,0.1,1.3-0.3,1.4-1c0,0,0,0,0,0l1.6-8c0.2-1,0.1-2.1-0.2-3.1L157.5,141z"/>
			<path class="st45" d="M157.6,147.4c-0.4,1.9-0.8,3.8-1.2,5.7c-0.1,0.7-0.7,1.1-1.4,1c0,0,0,0,0,0l-1.6-0.3c0.7,0.1,1.3-0.3,1.4-1
				c0,0,0,0,0,0l1.6-8c0.2-1,0.1-2.1-0.2-3.1l-0.3-1l1.6,0.3l0.3,1C158.5,143.8,158,145.6,157.6,147.4z"/>
			<path class="st3" d="M158,140.3l-0.1,0.3c-0.1,0.4-0.4,0.6-0.7,0.6c-0.1,0-0.1,0-0.2,0l-3.7-0.7c-0.3-0.1-0.5-0.4-0.5-0.7
				c0,0,0,0,0,0l0.1-0.5c0-0.1,0.1-0.2,0.1-0.3c0.2-0.3,0.6-0.5,1-0.4l3.1,0.6h0.1C157.8,139.2,158.1,139.7,158,140.3z"/>
			<path class="st3" d="M157.3,140.7l-0.1,0.3c0,0.1,0,0.1-0.1,0.2c-0.1,0-0.1,0-0.2,0l-3.7-0.7c-0.3-0.1-0.5-0.4-0.5-0.7
				c0,0,0,0,0,0l0.1-0.5c0-0.1,0.1-0.2,0.1-0.3c0.1,0,0.2,0,0.4,0l3.1,0.6h0.1C157.1,139.7,157.5,140.2,157.3,140.7z"/>
			
				<rect x="149.5" y="145.1" transform="matrix(0.1963 -0.9805 0.9805 0.1963 -21.8846 268.9008)" class="st3" width="7.1" height="5.5"/>
			<path class="st3" d="M155.4,146.3l-2.9-0.6c-0.2,0-0.4-0.2-0.3-0.5c0,0,0,0,0,0l0,0c0-0.2,0.3-0.4,0.5-0.3l3,0.6
				c0.2,0,0.4,0.3,0.3,0.5c0,0,0,0,0,0l0,0C155.9,146.2,155.7,146.4,155.4,146.3C155.4,146.3,155.4,146.3,155.4,146.3z"/>
			<path class="st3" d="M155.2,147.4l-3-0.6c-0.2-0.1-0.3-0.3-0.3-0.5l0,0c0-0.2,0.2-0.4,0.5-0.3c0,0,0,0,0,0l3,0.6
				c0.2,0,0.4,0.2,0.3,0.5c0,0,0,0,0,0l0,0C155.6,147.3,155.4,147.5,155.2,147.4C155.2,147.4,155.2,147.4,155.2,147.4z"/>
		</g>
		<path class="st46" d="M175.9,172.5l-2.3,5.2l-0.7,0.2c-0.9,0.3-1.9,0.5-2.9,0.6l-1-0.4c-0.2-0.3-0.1-0.7,0.2-1
			c1.9-1.7,4.2-4.1,1.8-3.8c-0.3,0-0.5,0.1-0.8,0.2c-0.3,0.1-0.6,0.2-0.9,0.4c-0.2,0.1-0.4,0.2-0.6,0.3l1.8-4
			c0.1-0.2,0.4-0.4,0.6-0.3l0,0l0.1,0.1c0.3,0.1,0.5,0,0.6-0.3l0.1-0.2l0.4-0.9l1.4,0.6c0.2,0.1,0.3,0.2,0.3,0.4
			c0.1-0.1,0.3-0.1,0.5-0.1l1.3,0.6h0.1l-0.4,0.9l0,0l-0.1,0.2c-0.1,0.2,0,0.5,0.2,0.6c0,0,0,0,0,0l0.1,0.1l0,0
			C175.9,172,176,172.3,175.9,172.5z"/>
		<path class="st47" d="M175.9,170.5c-0.1,0.2-0.3,0.4-0.6,0.3l-3.4-1.5c-0.2-0.1-0.3-0.4-0.2-0.6l0.5-1c0.1-0.2,0.3-0.4,0.6-0.3
			l3.4,1.5c0.2,0.1,0.3,0.4,0.2,0.6c0,0,0,0,0,0L175.9,170.5z"/>
		<path class="st47" d="M175.9,172.5l-2.3,5.2l-0.7,0.2l2.4-5.4c0.2-0.3,0-0.7-0.3-0.8c0,0,0,0,0,0c-0.3-0.2,0-0.7,0.1-1l0,0
			l0.3,0.1h0.1l-0.1,0.2c-0.1,0.2,0,0.5,0.2,0.6c0,0,0,0,0,0l0.1,0.1l0,0C175.9,171.9,176,172.2,175.9,172.5
			C175.9,172.5,175.9,172.5,175.9,172.5z"/>
		<path class="st48" d="M176.2,168.9l-0.4-0.2c0.2,0.1,0.3,0.4,0.2,0.6l-0.5,1c-0.1,0.2-0.3,0.4-0.6,0.3l0.4,0.2
			c0.2,0.1,0.5-0.1,0.6-0.3l0.4-1C176.5,169.3,176.4,169,176.2,168.9C176.2,168.9,176.2,168.9,176.2,168.9z"/>
		<path class="st3" d="M171.2,170.9l-1.1,2.4c-0.3,0.1-0.6,0.2-0.9,0.4l1.4-3.1c0.1-0.2,0.3-0.3,0.4-0.2l0,0
			C171.2,170.5,171.3,170.7,171.2,170.9C171.2,170.9,171.2,170.9,171.2,170.9z"/>
		<path class="st43" d="M177.3,131.7c2.1,0.5,3.3,2.6,2.8,4.6c0,0,0,0,0,0l-7.5-1.8C173.2,132.5,175.3,131.2,177.3,131.7
			C177.3,131.7,177.3,131.7,177.3,131.7z"/>
		<path class="st11" d="M175.5,139.2c-2.1-0.5-3.3-2.6-2.9-4.6c0,0,0,0,0,0l7.5,1.8C179.6,138.4,177.6,139.7,175.5,139.2
			C175.5,139.2,175.5,139.2,175.5,139.2z"/>
		<path class="st49" d="M177.2,132.1c1.8,0.4,2.9,2.3,2.5,4.1l-6.6-1.6C173.6,132.8,175.4,131.7,177.2,132.1z"/>
		<path class="st43" d="M175.6,138.7c-1.8-0.4-2.9-2.3-2.5-4.1l6.6,1.6C179.3,138,177.5,139.2,175.6,138.7z"/>
		<polygon class="st11" points="172.7,134.6 173.3,134.2 179.8,135.8 180.2,136.3 		"/>
		<polygon class="st50" points="172.7,134.6 173.1,135.1 179.6,136.6 180.2,136.3 		"/>
		<path class="st25" d="M174.7,127.4l0.2-0.2c1.1-0.9,2.8-0.8,3.8,0.3l5.5,6.6c0.9,1.1,0.8,2.8-0.3,3.8l-0.2,0.2
			c-1.1,0.9-2.8,0.8-3.8-0.3l-5.5-6.6C173.4,130,173.5,128.3,174.7,127.4z"/>
		<path class="st46" d="M174.4,131.2c-0.9-1.1-0.8-2.8,0.3-3.8l0.2-0.2c1.1-0.9,2.8-0.8,3.8,0.3l2.8,3.3l-4.3,3.6L174.4,131.2z"/>
		<path class="st21" d="M176.9,128.1L176.9,128.1c0.3-0.3,0.7-0.2,1,0l5.6,6.8c0.2,0.3,0.2,0.7-0.1,0.9l-0.1,0.1
			c-0.3,0.2-0.7,0.2-0.9-0.1l-5.6-6.8C176.6,128.7,176.6,128.3,176.9,128.1z"/>
		<circle class="st7" cx="180.9" cy="109.4" r="2.2"/>
		<circle class="st7" cx="190.7" cy="109.4" r="2.2"/>
		<circle class="st7" cx="200.6" cy="109.4" r="2.2"/>
		<path class="st35" d="M279.9,217.7v0.3c-0.9-2.8-2-5.4-3.3-8c-1.4-2.6-3-5.1-4.7-7.5c-1.3-1.9-2.5-4.4-5-4.9
			c-0.3-0.1-0.6,0-0.9,0.1c-0.4-1.4-0.7-2.8-0.9-4.3c0-0.3-0.1-0.5-0.1-0.8c-0.2-1.4-0.2-2.8,0.1-4.2c0-0.1,0.1-0.3,0.1-0.4
			c0-0.1,0-0.1,0.1-0.2c0.6-0.6,1.4-1,2.2-1.2h0.2c0.3-0.1,0.7-0.1,1-0.3c0.9-0.3,1.7-1.1,2-2l0,0c0.1-0.3,0.1-0.7,0.1-1.1
			c0-0.8-0.5-1.6-1.2-2c-0.2-0.1-0.4-0.1-0.6-0.1h-0.4l0,0c0,0,0,0-0.1,0l-1,1.1c-0.2,0.3-0.6,0.3-0.9,0.1c-0.1-0.1-0.2-0.2-0.2-0.3
			l-0.5-2c-0.4-1.6-1.9-2.7-3.6-2.6c-3,0.3-7.5,1.1-10.8-0.7l-1.8-1.7l-0.3-0.3c0.1-0.1,0.3-0.1,0.5-0.2c1.3-0.3,2.8,0.2,4.1,0.4
			c2.6,0.3,5.3,0,7.7-0.9c0.5-0.2,1.1-0.4,1.6-0.6l1.6-0.7c1-0.5,2-0.8,3-1.1c2.2-0.6,4.7-0.6,6.4,0.9c2.4,2.1,2,6,0.9,9
			c-1.2,3.2-4.5,6.3-4,10s5.2,6.1,7.2,9c3,4.2,3,6.9,2,12C280.2,214.2,279.9,216,279.9,217.7z"/>
		<path class="st35" d="M286.6,241.5c-0.2,0.6-0.6,1.1-1.1,1.6l0,0c-1.2-0.2-2.5-0.5-3.6-1c0.8-7.2,0.4-14.5-1.3-21.6
			c0.9,1.7,1.8,3.3,2.9,4.9c2.3,3.9,3.6,8.3,3.6,12.8C287.1,239.3,287,240.4,286.6,241.5z"/>
		<path class="st35" d="M296.5,224.9c-0.4-0.1-0.8-0.4-1.2-0.6c-0.3-0.1-0.7-0.1-1-0.1c-1.4,0.2-2.9,0.3-4.3,0.3
			c-1.5,0-2.8-0.7-3.7-1.8c-0.6-1.1-0.7-2.3-0.5-3.4c0.2-1.2,0.6-2.5,1.1-3.6c0.4-1,0.9-2,1.5-3c0.3-0.9,0.8-1.7,1.5-2.4
			c-0.2,0.4-0.5,0.9-0.7,1.3c-0.3,0.6-0.6,1.3-0.8,2c-0.1,0.2-0.1,0.4-0.2,0.7c-0.8,4.2,2.6,6.6,5.7,8.6c0.9,0.6,1.7,1.2,2.4,1.8
			l0,0L296.5,224.9z"/>
		<path class="st36" d="M138.1,125.7c0.1,0.9-0.4,1.7-1.2,2l0,0c-2.7,1.1-5.7,0.5-8.5,0.1c-1-0.2-2.1,0-3,0.4
			c-1.2,0.7-1.8,2-2.8,2.8c-0.3-1.8,0.2-3.6,1.4-5c1.2-1.1,2.9-1.5,4.4-1.1c3.9,0.6,7.4,1.1,9.7,0.5
			C138.1,125.5,138.1,125.6,138.1,125.7z"/>
		<path class="st36" d="M133.5,149.9c-0.1,0-0.2,0-0.4,0c-0.3-0.1-0.5-0.3-0.6-0.6c-1.7-2.3-3.6-4.3-5.8-6.1c-0.8-0.5-1.4-1.2-2-1.9
			c-0.3-0.4-0.5-0.8-0.6-1.3c0-0.4-0.1-0.8-0.2-1.3c0-0.1,0-0.2-0.1-0.3l0,0l-0.1-0.4l-0.1-0.3c-0.1-0.1-0.1-0.3-0.2-0.4l0.9,1.1
			c0.3,0.3,0.6,0.6,0.9,0.9c1,1.2,2.2,2.3,3.6,3c0.3,0.2,0.7,0.3,1,0.4l0,0l0.1,0.2c0,0.2,0.1,0.4,0.1,0.5l0.1,0.2l0,0l0.1,0.2
			l0.2,0.4c0,0.1,0,0.1,0.1,0.2c0,0.1,0.1,0.2,0.1,0.3l0.1,0.2c0.1,0.3,0.3,0.6,0.4,1l0.1,0.2l0.3,0.6l0.1,0.2
			c0,0.1,0.1,0.2,0.1,0.3C132.4,148.3,133,149.2,133.5,149.9z"/>
		<path class="st36" d="M266.6,182c-0.1-0.1-0.3-0.2-0.4-0.3c-0.1-0.2-0.2-0.4-0.2-0.6c-0.2-0.5-0.7-0.9-1.3-1
			c-0.6-0.1-1.2,0-1.7,0.1c-0.8,0.2-1.7,0.4-2.5,0.5c-1.3,0.1-2.6,0.1-3.9-0.2c-1.9-0.3-3.7-1-5.4-2c-0.8-0.6-1.4-1.2-2-2
			c0.2-0.4,0.4-0.8,0.6-1.3c0.5,0.6,1.2,1.1,1.9,1.5c3.3,1.7,7.7,0.9,10.7,0.7c1.7-0.2,3.2,0.9,3.6,2.6L266.6,182z"/>
		<path class="st36" d="M265.4,187.9c0,0.1-0.1,0.1-0.1,0.2c0,0.1-0.1,0.3-0.1,0.4c-0.1,0.4-0.2,0.9-0.2,1.4
			c-0.2,0.3-0.5,0.5-0.8,0.7c-0.5,0.3-1.1,0.5-1.6,0.9c-1.3,0.8-2.1,2.3-3.1,3.4c-0.4,0.5-1,0.9-1.6,1.2c0.6-1.2,1.1-2.5,1.3-3.9
			c1-0.5,1.9-1,2.8-1.7c0.5-0.4,1.1-0.8,1.7-1.2S264.8,188.4,265.4,187.9z"/>
		<path class="st36" d="M227.8,196.2c-0.2,0.1-0.3,0.2-0.5,0.3c-3.2,2.7-5.1,6.5-5.4,10.6c-2.5-1.6-4.9-3.4-7.2-5.4l-5.3-4.4
			c1.3,0.3,2.6,0.6,3.8,1.1c2,0.7,4,1.7,6.1,1.5c1.6-0.3,3.1-1,4.4-1.9l3.2-2L227.8,196.2z"/>
		<path class="st36" d="M240.9,250.2l-6.9,3.4c-0.6,0.3-1.2,0.5-1.8,0.7l-0.6,0.2l-13.3,4.4c1.7-1.4,3.5-2.6,5.6-3.5
			c1-0.4,2-0.8,3-1.4c1-0.6,1.8-1.3,2.7-1.8c0.6-0.3,1.2-0.6,1.8-0.9c1.5-0.7,2.9-1.3,3.6-2.7c0.6-1.3,0.6-2.8,0-4.2
			c0.4-0.4,0.8-0.9,1.3-1.3l0.1,0.1l0.1,0.1l0.1,0.1l0.1,0.1l0.1,0.1l0.1,0.1c0.4,0.4,0.7,0.7,0.9,1c1.8,2.1,2.9,3.1,2.9,4.7
			C240.7,249.8,240.7,250,240.9,250.2z"/>
		<path class="st36" d="M232.2,238.4c1.1,1.7,2.5,3.3,4,4.7c-0.4,0.4-0.9,0.8-1.3,1.3c-0.1-0.2-0.2-0.5-0.3-0.7
			c-0.6-1.1-1.4-2.1-1.9-3.3C232.4,239.9,232.3,239.2,232.2,238.4L232.2,238.4z"/>
		<path class="st3" d="M268.9,198.6c-0.2,0.3-0.4,0.7-0.6,1c-1.1,1.7-2.7,3-4.5,3.9c-0.6,0.4-1.3,0.7-1.9,1
			c-1.2,0.3-2.4,0.4-3.7,0.3c-1.6,0-3.1-0.4-4.6-1l-0.1-0.1c-0.6-0.4-0.7-1.2-0.4-1.7c0.7-1.2,1.4-2.4,2.9-2.7
			c-0.8,1.4-0.7,2.9,1,3.3c2.4,0.5,4.9-0.3,6.7-2c0.7-0.7,1.3-2.3,2.3-2.8c0.3-0.1,0.6-0.2,0.9-0.1
			C267.6,197.8,268.3,198.1,268.9,198.6z"/>
		<path class="st29" d="M268.9,225.2c-0.6,3.4-2,6.7-4,9.5c-1.1,1.6-2.4,3.2-3.9,4.5c-0.2,0.3-0.5,0.6-0.8,0.9
			c-1.1,1.2-2.3,2.2-3.5,3.4c-2.8,2.8-4.9,6.3-6.1,10.2c-0.4,1.4-0.9,3-2,3.6c-2.3-0.7-4.6-1.1-7-1.4h-0.1c-0.5,0-1.1-0.1-1.5-0.1
			h-0.6c-1.3,0-2.5,0-3.8,0.1c-0.6,0.1-1.1-0.3-1.2-0.9c-0.1-0.5-0.2-1-0.3-1.4c0,0,0-0.1,0-0.1l6.7-3.3c0.6,1,2.6,1.1,3.5-0.7
			c1-2.1,6.6-7.1,14.4-12.6c5-3.5,8.5-8.6,10.1-14.5C269.4,223.2,269.1,224.2,268.9,225.2z"/>
		<path class="st18" d="M219.5,291.6c-0.9,3.1-1.7,6-2.4,7.9c-2.1,5.8-4.2,15.1-6,22.6c-0.5,2-2.4,3.2-4.4,3c0.3-4,1-7.9,2.3-11.7
			C211.8,305.7,215.3,298.4,219.5,291.6z"/>
		<path class="st36" d="M222,334.8C221.9,334.6,221.9,334.6,222,334.8z"/>
		<path class="st36" d="M237.3,331.4c-4,4.1-7.4,6.4-13.4,6.1c-2.3-0.1-2.5-1.2-1.9-2.7c0.2-0.6,0.6-1.2,1.2-1.4l0.5-0.1
			c1.3-0.1,2.6,0.1,3.9-0.1c1.3-0.2,2.5-0.7,3.5-1.5c1.7-1,2.9-2.5,3.6-4.3c0.6-1.9,0-3.9-1.5-5.1c-0.4-0.3-0.9-0.5-1.4-0.7l0.2-0.1
			l4-2.1c0.4-0.2,0.8-0.6,1-1l0.1,0.1c0.8,1.1,1.5,2.4,2.1,3.7C240.5,325.7,240.9,327.9,237.3,331.4z"/>
	</g>
</g>
<rect class="st51" width="450" height="401"/>
</svg>
